<svg width="184" height="120" viewBox="0 0 184 120" fill="none" xmlns="http://www.w3.org/2000/svg">
<path d="M48.1235 94.7695C41.1477 94.7695 35.4727 100.427 35.4727 107.384C35.4727 107.394 35.4741 107.403 35.4741 107.414C35.4756 108.096 35.5471 108.76 35.6527 109.413C36.6291 115.404 41.8412 120 48.1235 120C54.4177 120 59.6403 115.383 60.6002 109.37C60.7014 108.731 60.7714 108.081 60.7729 107.415C60.7729 107.405 60.7744 107.396 60.7744 107.385C60.7729 100.427 55.0979 94.7695 48.1235 94.7695Z" fill="white"/>
<path d="M144.871 94.7695C137.894 94.7695 132.219 100.427 132.219 107.384C132.219 107.394 132.22 107.403 132.22 107.414C132.222 108.096 132.293 108.76 132.399 109.413C133.377 115.405 138.589 120 144.871 120C151.167 120 156.389 115.381 157.348 109.368C157.449 108.728 157.519 108.08 157.52 107.415C157.52 107.405 157.522 107.396 157.522 107.385C157.522 100.427 151.847 94.7695 144.871 94.7695Z" fill="white"/>
<path d="M180.281 0.00148606L47.978 0C46.9897 0 46.0447 0.390303 45.3466 1.08632C44.8227 1.6087 44.4715 2.2691 44.3286 2.98144L0.738215 57.3938C0.258971 58.0349 0 58.8125 0 59.6109V107.412C0 109.461 1.66545 111.122 3.72084 111.122H32.1987C31.9263 109.976 31.7656 108.788 31.7536 107.563L31.7522 107.385C31.7522 98.3844 39.0971 91.0607 48.1239 91.0607C57.1491 91.0607 64.4926 98.3844 64.4955 107.384L64.4926 107.56C64.4792 108.786 64.3184 109.975 64.0461 111.122H128.948C128.671 109.955 128.509 108.744 128.5 107.498C128.498 107.459 128.498 107.421 128.498 107.385C128.498 98.3844 135.843 91.0607 144.872 91.0607C153.898 91.0607 161.243 98.3844 161.243 107.385C161.243 107.421 161.243 107.461 161.242 107.499C161.231 108.747 161.069 109.955 160.792 111.122H180.279C182.335 111.122 184 109.461 184 107.412V3.71159C184.001 1.66213 182.336 0.00148606 180.281 0.00148606ZM44.342 56.6161H17.4061L44.342 24.6113V56.6161ZM141.703 56.9931L106.898 56.1813C106.898 59.1316 105.264 60.862 102.61 60.862H86.0764C83.7308 60.862 83.7308 57.7069 86.0764 57.7069H95.7744C99.0383 57.7069 99.0383 54.6527 95.7744 54.6527H86.0764C83.7308 54.6527 83.7308 51.8034 86.0764 51.8034H95.7744C99.0383 51.8034 99.0383 48.4435 95.8756 48.4435H86.1776C83.7278 48.4435 83.7278 45.4932 86.1776 45.4932H102.712C105.264 45.4932 106.897 47.8336 106.897 50.4796L141.701 49.6649C146.909 49.6664 146.808 57.0969 141.703 56.9931ZM145.479 35.4181C144.153 38.4722 140.886 39.284 120.473 37.7569C120.88 39.9978 118.634 42.0325 115.06 41.7282L90.2631 40.4059C86.1791 40.4059 84.4437 38.7765 84.4437 34.7058C84.4437 32.0597 85.9752 30.6365 88.6289 30.6365H141.806C145.784 30.6365 145.991 33.6877 145.479 35.4181Z" fill="white"/>
</svg>
