<svg width="120" height="120" viewBox="0 0 120 120" fill="none" xmlns="http://www.w3.org/2000/svg">
<path d="M8.57143 0C3.87141 0 0 3.8714 0 8.57143V27.1429H120V8.57143C120 3.8714 116.129 0 111.429 0H8.57143ZM0 32.8571V44.2857C0 53.7334 7.69514 61.4286 17.1429 61.4286C23.2614 61.4286 28.3943 58.0216 31.4286 53.1808C34.4629 58.0216 39.5957 61.4286 45.7143 61.4286C51.8328 61.4286 56.9657 58.0216 60 53.1808C63.0343 58.0216 68.1672 61.4286 74.2857 61.4286C80.4043 61.4286 85.5371 58.0216 88.5714 53.1808C91.6057 58.0216 96.7386 61.4286 102.857 61.4286C112.305 61.4286 120 53.7334 120 44.2857V32.8571H0ZM31.4286 61.6964C27.4855 64.9286 22.6406 67.1429 17.1429 67.1429C13.5532 67.1429 10.1672 66.2881 7.14286 64.8103V111.429C7.14286 116.129 11.0143 120 15.7143 120H42.8571V84.2857C42.8571 79.5857 46.7285 75.7143 51.4286 75.7143H68.5714C73.2715 75.7143 77.1428 79.5857 77.1428 84.2857V120H104.286C108.986 120 112.857 116.129 112.857 111.429V64.8103C109.833 66.2881 106.447 67.1429 102.857 67.1429C97.3602 67.1429 92.5142 64.928 88.5714 61.6964C84.6283 64.9286 79.7834 67.1429 74.2857 67.1429C68.7888 67.1429 63.9428 64.928 60 61.6964C56.0569 64.9286 51.212 67.1429 45.7143 67.1429C40.2173 67.1429 35.3713 64.928 31.4286 61.6964Z" fill="white"/>
</svg>
