<svg width="112" height="112" viewBox="0 0 112 112" fill="none" xmlns="http://www.w3.org/2000/svg">
<g id="&#208;&#184;&#208;&#179;&#208;&#181;&#208;&#181;&#209;&#137;&#209;&#130; (2) 2" clip-path="url(#clip0_1_5641)">
<g id="Group" filter="url(#filter0_d_1_5641)">
<path id="Vector" d="M56.001 105.651C83.4217 105.651 105.651 83.4217 105.651 56.001C105.651 28.5804 83.4217 6.35156 56.001 6.35156C28.5804 6.35156 6.35156 28.5804 6.35156 56.001C6.35156 83.4217 28.5804 105.651 56.001 105.651Z" fill="#FCF9F8"/>
</g>
<g id="Group_2" filter="url(#filter1_d_1_5641)">
<path id="Vector_2" d="M94.6811 56.0007C94.6811 77.3633 77.3633 94.6811 56.0007 94.6811C34.6382 94.6811 17.3203 77.3633 17.3203 56.0007C17.3203 34.6382 34.6382 17.3203 56.0007 17.3203C77.3633 17.3203 94.6811 34.6382 94.6811 56.0007Z" fill="#fe734a"/>
</g>
<path id="Vector_3" d="M24.4688 49.4806C24.4688 48.5999 24.6508 47.8167 25.0149 47.1309C25.3874 46.4367 25.9124 45.8989 26.5898 45.5179C27.2672 45.1285 28.0462 44.9336 28.9267 44.9336C30.0444 44.9336 30.9842 45.2341 31.7463 45.8354C32.5084 46.428 32.9997 47.2368 33.2196 48.2613H30.5397C30.3789 47.9227 30.1546 47.6643 29.8665 47.4865C29.5871 47.3087 29.2612 47.2198 28.8886 47.2198C28.3129 47.2198 27.8514 47.4273 27.5043 47.8422C27.1656 48.2486 26.9963 48.7947 26.9963 49.4806C26.9963 50.1748 27.1656 50.7296 27.5043 51.1444C27.8514 51.5509 28.3129 51.7541 28.8886 51.7541C29.2612 51.7541 29.5871 51.6652 29.8665 51.4873C30.1546 51.3095 30.3789 51.0512 30.5397 50.7126H33.2196C32.9997 51.737 32.5084 52.5499 31.7463 53.1512C30.9842 53.7438 30.0444 54.0403 28.9267 54.0403C28.0462 54.0403 27.2672 53.8497 26.5898 53.4687C25.9124 53.0793 25.3874 52.5415 25.0149 51.8557C24.6508 51.1614 24.4688 50.3697 24.4688 49.4806ZM38.6915 54.0657C37.8532 54.0657 37.0828 53.8708 36.3799 53.4814C35.6773 53.0833 35.1184 52.5372 34.7033 51.843C34.2969 51.1401 34.0937 50.3486 34.0937 49.4679C34.0937 48.5872 34.2969 47.7997 34.7033 47.1055C35.1184 46.4026 35.6773 45.8565 36.3799 45.4671C37.0828 45.0777 37.8532 44.8828 38.6915 44.8828C39.5384 44.8828 40.3088 45.0777 41.003 45.4671C41.7059 45.8565 42.2604 46.4026 42.6669 47.1055C43.0733 47.7997 43.2765 48.5872 43.2765 49.4679C43.2765 50.3486 43.0733 51.1401 42.6669 51.843C42.2604 52.5372 41.7059 53.0833 41.003 53.4814C40.3004 53.8708 39.5297 54.0657 38.6915 54.0657ZM38.6915 51.7541C39.3265 51.7541 39.8262 51.5465 40.1902 51.1317C40.5628 50.7169 40.749 50.1621 40.749 49.4679C40.749 48.7566 40.5628 48.1978 40.1902 47.7913C39.8262 47.3765 39.3265 47.169 38.6915 47.169C38.048 47.169 37.5443 47.3765 37.18 47.7913C36.816 48.1978 36.6339 48.7566 36.6339 49.4679C36.6339 50.1708 36.816 50.7296 37.18 51.1444C37.5443 51.5509 38.048 51.7541 38.6915 51.7541ZM52.6894 53.9767H50.2L46.8851 48.9725V53.9767H44.3957V45.0225H46.8851L50.2 50.0902V45.0225H52.6894V53.9767ZM60.8519 45.0225V47.0039H58.4641V53.9767H55.9747V47.0039H53.6123V45.0225H60.8519ZM67.4374 52.5161H64.2621L63.7795 53.9767H61.163L64.4272 45.0225H67.2976L70.5491 53.9767H67.92L67.4374 52.5161ZM66.815 50.611L65.8497 47.7151L64.8971 50.611H66.815ZM71.0557 49.4806C71.0557 48.5999 71.2378 47.8167 71.6018 47.1309C71.9745 46.4367 72.4993 45.8989 73.1768 45.5179C73.8543 45.1285 74.6331 44.9336 75.5138 44.9336C76.6315 44.9336 77.5713 45.2341 78.3334 45.8354C79.0955 46.428 79.5865 47.2368 79.8067 48.2613H77.1268C76.966 47.9227 76.7414 47.6643 76.4536 47.4865C76.1742 47.3087 75.8483 47.2198 75.4757 47.2198C74.8998 47.2198 74.4385 47.4273 74.0913 47.8422C73.7527 48.2486 73.5832 48.7947 73.5832 49.4806C73.5832 50.1748 73.7527 50.7296 74.0913 51.1444C74.4385 51.5509 74.8998 51.7541 75.4757 51.7541C75.8483 51.7541 76.1742 51.6652 76.4536 51.4873C76.7414 51.3095 76.966 51.0512 77.1268 50.7126H79.8067C79.5865 51.737 79.0955 52.5499 78.3334 53.1512C77.5713 53.7438 76.6315 54.0403 75.5138 54.0403C74.6331 54.0403 73.8543 53.8497 73.1768 53.4687C72.4993 53.0793 71.9745 52.5415 71.6018 51.8557C71.2378 51.1614 71.0557 50.3697 71.0557 49.4806ZM87.7299 45.0225V47.0039H85.3421V53.9767H82.8527V47.0039H80.4903V45.0225H87.7299ZM50.6916 57.7236V62.9183C50.6916 63.4009 50.8019 63.7736 51.0218 64.036C51.2505 64.2984 51.5934 64.4297 52.0506 64.4297C52.5079 64.4297 52.8508 64.2984 53.0794 64.036C53.3167 63.7649 53.435 63.3925 53.435 62.9183V57.7236H55.9244V62.9183C55.9244 63.7395 55.751 64.4424 55.4037 65.0266C55.0567 65.6025 54.5825 66.0384 53.9812 66.3349C53.3886 66.6226 52.7281 66.7667 51.9998 66.7667C51.2718 66.7667 50.6197 66.6226 50.0439 66.3349C49.4767 66.0384 49.0278 65.6025 48.6976 65.0266C48.376 64.4508 48.2149 63.7482 48.2149 62.9183V57.7236H50.6916ZM60.6738 66.7667C59.6323 66.7667 58.777 66.521 58.1082 66.03C57.439 65.5304 57.0794 64.8191 57.0286 63.8963H59.6831C59.7085 64.2094 59.8014 64.4381 59.9625 64.5821C60.1233 64.7262 60.3308 64.798 60.5849 64.798C60.8135 64.798 60.9997 64.7429 61.1437 64.6329C61.2961 64.5143 61.3723 64.3535 61.3723 64.1503C61.3723 63.8879 61.2494 63.6847 61.004 63.5406C60.7583 63.3966 60.3603 63.2358 59.8101 63.058C59.2258 62.8631 58.7516 62.677 58.3876 62.4991C58.032 62.313 57.7185 62.0462 57.4477 61.699C57.185 61.3433 57.054 60.8818 57.054 60.3146C57.054 59.7387 57.1977 59.2477 57.4858 58.8412C57.7736 58.4264 58.1717 58.113 58.6797 57.9014C59.1877 57.6898 59.7633 57.5838 60.407 57.5838C61.4485 57.5838 62.2781 57.8295 62.8964 58.3205C63.5228 58.8031 63.8574 59.4847 63.8998 60.3654H61.1945C61.1858 60.0943 61.1013 59.8911 60.9405 59.7557C60.7881 59.6203 60.5889 59.5525 60.3435 59.5525C60.1571 59.5525 60.0047 59.6076 59.8863 59.7176C59.7677 59.8276 59.7085 59.9843 59.7085 60.1876C59.7085 60.357 59.772 60.5051 59.899 60.6321C60.0344 60.7507 60.1995 60.8564 60.3943 60.9496C60.5889 61.0342 60.877 61.1445 61.258 61.2798C61.8252 61.4747 62.2908 61.6692 62.6551 61.8641C63.0275 62.0503 63.345 62.317 63.6077 62.6643C63.8785 63.0028 64.0141 63.4347 64.0141 63.9598C64.0141 64.4932 63.8785 64.9715 63.6077 65.395C63.345 65.8184 62.9599 66.1527 62.4519 66.3984C61.9522 66.644 61.3596 66.7667 60.6738 66.7667Z" fill="white"/>
<path id="Vector_4" d="M98.8678 56.5688C99.3045 56.6228 99.6815 56.7657 99.9985 56.9969C100.319 57.2287 100.554 57.5243 100.701 57.8837C100.852 58.2479 100.901 58.6446 100.848 59.0729C100.783 59.5983 100.589 60.0307 100.265 60.3702C99.9413 60.7096 99.5323 60.9129 99.0378 60.9795L99.1844 59.7946C99.3804 59.7293 99.5366 59.6208 99.6538 59.469C99.7701 59.3212 99.8411 59.1445 99.8665 58.9387C99.9078 58.6067 99.8256 58.3236 99.62 58.0889C99.4145 57.8545 99.1183 57.7131 98.7318 57.6654C98.3453 57.6175 98.0238 57.6822 97.7671 57.8594C97.5105 58.0366 97.3616 58.291 97.3206 58.6229C97.2949 58.829 97.3206 59.0175 97.3974 59.1893C97.4739 59.3651 97.5988 59.5085 97.7729 59.6197L97.626 60.8046C97.1627 60.6193 96.8154 60.3223 96.5845 59.9141C96.3579 59.5062 96.2771 59.0397 96.342 58.5147C96.3951 58.086 96.5374 57.7133 96.7687 57.3964C97.0036 57.0841 97.303 56.8546 97.6667 56.7077C98.0304 56.561 98.4308 56.5145 98.8678 56.5688Z" fill="#fe734a"/>
<path id="Vector_5" d="M95.7129 63.5022C95.8177 63.0967 96.0085 62.748 96.2854 62.4567C96.5607 62.1692 96.8924 61.9686 97.2806 61.8548C97.6718 61.746 98.0782 61.7463 98.5005 61.8557C98.9226 61.9648 99.2764 62.1614 99.5616 62.4452C99.8457 62.7329 100.039 63.0692 100.14 63.4543C100.241 63.8431 100.238 64.2406 100.133 64.6465C100.028 65.052 99.8379 65.3987 99.5625 65.6859C99.286 65.9772 98.9546 66.1758 98.5687 66.2814C98.1816 66.3911 97.7771 66.3914 97.3548 66.2823C96.9328 66.1729 96.5769 65.976 96.2877 65.6911C96.0025 65.4074 95.8091 65.0731 95.7077 64.6883C95.6061 64.3033 95.6079 63.9081 95.7129 63.5022ZM96.6719 63.7505C96.5827 64.0948 96.6265 64.3991 96.8029 64.6635C96.9784 64.932 97.2547 65.115 97.6317 65.2125C98.013 65.3113 98.3432 65.285 98.6229 65.1343C98.9052 64.9888 99.0911 64.744 99.1803 64.3997C99.2704 64.0513 99.23 63.7435 99.0585 63.476C98.8862 63.2127 98.6073 63.0314 98.222 62.9315C97.8409 62.8328 97.509 62.8565 97.2264 63.002C96.947 63.1527 96.7622 63.4021 96.6719 63.7505Z" fill="#fe734a"/>
<path id="Vector_6" d="M93.6797 70.4984L94.0838 69.4906L97.3122 68.8285L94.7601 67.8049L95.1643 66.7969L99.3019 68.4567L98.8975 69.4644L95.6576 70.1219L98.2215 71.1502L97.8173 72.1582L93.6797 70.4984Z" fill="#fe734a"/>
<path id="Vector_7" d="M95.8908 76.4318L95.1184 76.0314L95.6619 74.9827L92.4766 73.3313L92.9762 72.3672L96.1619 74.0186L96.7054 72.9699L97.4779 73.3703L95.8908 76.4318Z" fill="#fe734a"/>
<path id="Vector_8" d="M90.8973 77.8632L91.8415 76.493L91.3441 75.8268L91.9893 74.8906L94.7451 78.7483L94.0315 79.7837L89.4453 78.5826L90.0977 77.6361L90.8973 77.8632ZM91.7462 78.1086L93.4037 78.5797L92.3694 77.2039L91.7462 78.1086Z" fill="#fe734a"/>
<path id="Vector_9" d="M90.9397 80.7882C91.2685 81.0809 91.4977 81.4123 91.6273 81.7826C91.7598 82.1559 91.7849 82.5323 91.7021 82.9119C91.6195 83.2975 91.4348 83.6517 91.1476 83.9741C90.7957 84.3696 90.3901 84.615 89.9309 84.7108C89.4719 84.8063 89.0196 84.7414 88.5748 84.5154L89.3686 83.6234C89.5666 83.6809 89.7571 83.6803 89.9395 83.6217C90.1194 83.5663 90.2781 83.4612 90.4161 83.3062C90.6384 83.0562 90.7316 82.7765 90.6955 82.4668C90.6595 82.157 90.4961 81.8724 90.2051 81.6135C89.9141 81.3546 89.6128 81.2252 89.3007 81.2255C88.989 81.2255 88.722 81.3505 88.4994 81.6005C88.3614 81.7555 88.2754 81.9252 88.2414 82.1103C88.2044 82.2982 88.2258 82.4875 88.3057 82.6778L87.5122 83.5697C87.2359 83.1538 87.1187 82.7124 87.1606 82.2451C87.2056 81.7806 87.4039 81.3508 87.7558 80.9556C88.0428 80.6329 88.3715 80.4069 88.7419 80.2773C89.1125 80.1537 89.4892 80.135 89.872 80.2207C90.2548 80.3061 90.6107 80.4955 90.9397 80.7882Z" fill="#fe734a"/>
<path id="Vector_10" d="M86.5965 88.7268L86.0042 88.0894L86.869 87.2852L84.4258 84.6575L85.221 83.918L87.6643 86.5456L88.5294 85.7414L89.1217 86.3785L86.5965 88.7268Z" fill="#fe734a"/>
<path id="Vector_11" d="M83.421 91.5599L81.9402 89.3416C81.7921 89.1199 81.6235 88.9854 81.4345 88.9386C81.2454 88.8918 81.045 88.9389 80.8337 89.08C80.6227 89.2209 80.5006 89.3889 80.4677 89.584C80.4351 89.7789 80.4928 89.9873 80.6409 90.209L82.1217 92.4273L81.2185 93.0303L79.7412 90.8172C79.5203 90.4864 79.4037 90.1593 79.3919 89.8366C79.3798 89.5136 79.4548 89.2143 79.6168 88.938C79.7749 88.6644 80.0004 88.43 80.2925 88.2348C80.5849 88.0397 80.8848 87.9211 81.1923 87.8786C81.4988 87.842 81.7953 87.8934 82.0819 88.0328C82.3709 88.176 82.6257 88.4129 82.8469 88.744L84.3242 90.9569L83.421 91.5599Z" fill="#fe734a"/>
<path id="Vector_12" d="M76.517 90.7452C76.8051 90.5931 77.0882 90.5036 77.3659 90.4768C77.6439 90.4496 77.9002 90.4915 78.1358 90.6018C78.3673 90.714 78.5552 90.8976 78.699 91.1519L77.6768 91.6914C77.5847 91.5532 77.4748 91.4677 77.3472 91.4345C77.2216 91.4051 77.0897 91.4267 76.9511 91.5001C76.8088 91.5751 76.7133 91.666 76.6645 91.7734C76.6177 91.8843 76.6249 91.9977 76.6861 92.1138C76.7375 92.211 76.8137 92.2737 76.9148 92.302C77.012 92.332 77.12 92.3418 77.2392 92.3317C77.3544 92.3233 77.514 92.2991 77.7175 92.2587C78.0137 92.2029 78.2631 92.1718 78.4654 92.1654C78.6681 92.1591 78.8678 92.2021 79.065 92.2944C79.2621 92.3865 79.4258 92.5563 79.5563 92.8034C79.75 93.1702 79.7682 93.527 79.6108 93.8731C79.4558 94.2233 79.1649 94.5108 78.7379 94.7359C78.3035 94.9651 77.8982 95.0451 77.5218 94.9758C77.1471 94.9103 76.8527 94.697 76.6382 94.3361L77.6774 93.7877C77.7522 93.9112 77.8512 93.9857 77.975 94.0114C78.1006 94.0408 78.2308 94.0201 78.3656 93.9488C78.4816 93.8876 78.5584 93.8065 78.5959 93.7051C78.6355 93.6076 78.6245 93.501 78.5633 93.3847C78.496 93.2574 78.3838 93.1899 78.2264 93.1821C78.0691 93.174 77.8414 93.1962 77.5435 93.2482C77.2433 93.2964 76.9939 93.3227 76.7953 93.327C76.5926 93.3333 76.3937 93.2924 76.1986 93.2037C76.0037 93.1154 75.8438 92.9532 75.7194 92.7173C75.6008 92.4928 75.5511 92.2581 75.5705 92.0133C75.5858 91.7705 75.6735 91.5376 75.8334 91.3142C75.9934 91.091 76.2211 90.9014 76.517 90.7452Z" fill="#fe734a"/>
<path id="Vector_13" d="M72.008 94.3458C72.1711 94.286 72.3365 94.2704 72.5048 94.299C72.6694 94.3288 72.816 94.3969 72.945 94.5028C73.0755 94.6128 73.1708 94.7493 73.2305 94.9121C73.2917 95.0793 73.3073 95.2447 73.2773 95.4092C73.2487 95.5775 73.1814 95.7262 73.0755 95.8552C72.9655 95.9857 72.829 96.0806 72.6662 96.1404C72.4993 96.2016 72.3337 96.2175 72.1694 96.1874C72.0011 96.1589 71.8516 96.0896 71.7211 95.9796C71.5921 95.8737 71.4968 95.7371 71.4356 95.5703C71.3759 95.4075 71.3603 95.2418 71.3889 95.0735C71.4189 94.9093 71.4887 94.7617 71.5987 94.6313C71.7047 94.5022 71.8412 94.407 72.008 94.3458Z" fill="#fe734a"/>
<path id="Vector_14" d="M68.2766 97.0472C68.3557 97.4805 68.3326 97.8829 68.2067 98.2544C68.0818 98.6302 67.8699 98.9422 67.5708 99.1905C67.2686 99.4437 66.9052 99.6093 66.4803 99.687C65.9598 99.782 65.489 99.7262 65.0681 99.519C64.647 99.312 64.3309 98.9824 64.119 98.5303L65.2936 98.3159C65.4145 98.483 65.5649 98.5996 65.7448 98.6657C65.9206 98.7327 66.1105 98.7474 66.3146 98.7102C66.6436 98.6498 66.8893 98.4867 67.0515 98.2203C67.2135 97.9539 67.2597 97.6291 67.1895 97.2461C67.1197 96.863 66.9615 96.5755 66.7155 96.3836C66.4696 96.1919 66.1821 96.1261 65.8533 96.1864C65.6492 96.2236 65.4766 96.3048 65.336 96.4295C65.1911 96.5547 65.0915 96.7173 65.0375 96.9164L63.8633 97.1312C63.9014 96.6335 64.0806 96.2133 64.4011 95.8709C64.7223 95.5323 65.1432 95.3155 65.6637 95.2203C66.0886 95.1426 66.4866 95.1666 66.8581 95.2924C67.2265 95.4232 67.535 95.64 67.7841 95.9431C68.0333 96.2462 68.1975 96.6142 68.2766 97.0472Z" fill="#fe734a"/>
<path id="Vector_15" d="M60.6346 96.1206C61.0531 96.0995 61.4428 96.1774 61.8036 96.3544C62.1601 96.5313 62.4505 96.7879 62.6751 97.1242C62.8959 97.4651 63.0169 97.8534 63.0388 98.2887C63.0608 98.7243 62.9788 99.1206 62.7935 99.4774C62.6035 99.8344 62.3403 100.119 62.0031 100.331C61.6619 100.543 61.282 100.66 60.8635 100.681C60.4449 100.702 60.0573 100.624 59.7008 100.447C59.3402 100.27 59.0519 100.013 58.8356 99.6763C58.6151 99.3397 58.4942 98.9535 58.4722 98.5182C58.4503 98.0826 58.5323 97.6842 58.7176 97.3231C58.9029 96.966 59.1641 96.6817 59.5013 96.4698C59.8382 96.258 60.216 96.1413 60.6346 96.1206ZM60.6842 97.1098C60.3292 97.1277 60.0518 97.2602 59.8523 97.5078C59.6485 97.7552 59.5564 98.0736 59.5758 98.4627C59.5957 98.8559 59.7192 99.1633 59.9464 99.385C60.1698 99.6113 60.4591 99.7155 60.8141 99.6976C61.1735 99.6794 61.4552 99.549 61.6593 99.3053C61.8591 99.0623 61.9488 98.7419 61.9289 98.3444C61.9093 97.9512 61.7878 97.6415 61.5643 97.4155C61.3372 97.1938 61.0436 97.0919 60.6842 97.1098Z" fill="#fe734a"/>
<path id="Vector_16" d="M53.2657 96.2617L54.3484 96.3454L55.9473 99.2271L56.1592 96.4854L57.242 96.5691L56.8982 101.014L55.8157 100.93L54.2177 98.0361L54.0046 100.79L52.9219 100.707L53.2657 96.2617Z" fill="#fe734a"/>
<path id="Vector_17" d="M48.2891 100.149L48.4392 99.2918L49.6028 99.4953L50.2208 95.9609L51.2905 96.148L50.6722 99.6823L51.8358 99.8858L51.686 100.743L48.2891 100.149Z" fill="#fe734a"/>
<path id="Vector_18" d="M45.4342 95.81L47.0245 96.2998L47.5109 95.6255L48.5974 95.9601L45.744 99.7462L44.542 99.3761L44.3125 94.6406L45.4111 94.9789L45.4342 95.81ZM45.4544 96.6936L45.5024 98.416L46.5046 97.0169L45.4544 96.6936Z" fill="#fe734a"/>
<path id="Vector_19" d="M42.6646 96.7241C42.4842 97.1257 42.2365 97.4438 41.9222 97.6785C41.6061 97.9169 41.2545 98.0537 40.8674 98.0883C40.4748 98.1256 40.0817 98.0554 39.6876 97.8785C39.205 97.6614 38.8494 97.3482 38.6202 96.9389C38.391 96.5296 38.3177 96.0787 38.3996 95.5862L39.4885 96.0758C39.4934 96.2822 39.5508 96.4638 39.6617 96.6202C39.7685 96.7749 39.9163 96.895 40.1056 96.9799C40.4107 97.1173 40.7054 97.1222 40.9901 96.9949C41.275 96.8676 41.4972 96.6263 41.6569 96.2709C41.8165 95.9156 41.8494 95.5894 41.7559 95.2918C41.6621 94.9945 41.4626 94.7771 41.1578 94.64C40.9684 94.5549 40.7805 94.524 40.5937 94.5468C40.4032 94.5679 40.2294 94.6449 40.0718 94.7786L38.983 94.289C39.2968 93.9008 39.6827 93.6566 40.1408 93.5564C40.5975 93.4597 41.0671 93.52 41.5498 93.7371C41.9435 93.914 42.2579 94.16 42.4925 94.4743C42.7214 94.7907 42.8525 95.1446 42.8857 95.5354C42.9189 95.9263 42.8453 96.3226 42.6646 96.7241Z" fill="#fe734a"/>
<path id="Vector_20" d="M33.7812 94.9457L34.2128 94.1903L35.2384 94.776L37.0177 91.6602L37.9608 92.1988L36.1815 95.3146L37.2074 95.9003L36.7758 96.6557L33.7812 94.9457Z" fill="#fe734a"/>
<path id="Vector_21" d="M30.1452 92.7607L31.8223 90.6866C31.99 90.4791 32.0679 90.2782 32.0564 90.0839C32.0448 89.8893 31.9404 89.7121 31.7429 89.5525C31.5452 89.3929 31.3486 89.3265 31.1526 89.353C30.9569 89.3799 30.775 89.4968 30.6073 89.7043L28.9305 91.7783L28.0859 91.0957L29.759 89.0265C30.0092 88.7171 30.2866 88.5084 30.5914 88.401C30.896 88.2936 31.2043 88.276 31.516 88.3482C31.8243 88.418 32.1153 88.5633 32.3884 88.7844C32.6617 89.0052 32.8644 89.2563 32.9966 89.5372C33.1227 89.8189 33.1617 90.1174 33.1138 90.4323C33.0632 90.751 32.9128 91.0648 32.6626 91.3742L30.9895 93.4433L30.1452 92.7607Z" fill="#fe734a"/>
<path id="Vector_22" d="M28.8532 85.9112C29.0837 86.1418 29.2529 86.3857 29.3606 86.6432C29.4685 86.9007 29.5043 87.1582 29.4685 87.4157C29.4295 87.67 29.3097 87.9035 29.1091 88.116L28.2919 87.2988C28.3967 87.17 28.446 87.0398 28.44 86.9082C28.4311 86.7795 28.3712 86.6597 28.2604 86.5488C28.1467 86.4351 28.0314 86.3707 27.9147 86.3557C27.7949 86.3439 27.6886 86.3843 27.5958 86.477C27.518 86.5549 27.4806 86.6461 27.4836 86.7509C27.4836 86.8528 27.506 86.959 27.5509 87.0699C27.5929 87.1775 27.6632 87.3227 27.762 87.5055C27.9027 87.7719 28.006 88.0008 28.0718 88.1925C28.1377 88.3841 28.1557 88.5876 28.1257 88.8033C28.0958 89.0186 27.982 89.2253 27.7844 89.4227C27.4911 89.7163 27.1558 89.839 26.7786 89.7911C26.3984 89.746 26.0376 89.5529 25.6964 89.2117C25.3491 88.8645 25.153 88.5008 25.1081 88.1206C25.0602 87.7433 25.177 87.3992 25.4584 87.0878L26.2891 87.9185C26.1933 88.0262 26.1514 88.1431 26.1634 88.2687C26.1724 88.3974 26.2307 88.5158 26.3385 88.6234C26.4313 88.7164 26.5316 88.7658 26.6394 88.7718C26.7441 88.7808 26.8429 88.7389 26.9358 88.646C27.0375 88.5441 27.069 88.417 27.03 88.2643C26.9911 88.1116 26.9028 87.9006 26.7651 87.631C26.6304 87.3588 26.5316 87.1282 26.4687 86.9397C26.4029 86.748 26.3834 86.546 26.4104 86.3335C26.4373 86.1208 26.5451 85.9201 26.7337 85.7316C26.9133 85.5521 27.1228 85.4352 27.3623 85.3815C27.5988 85.3246 27.8473 85.3394 28.1078 85.4262C28.3682 85.5131 28.6167 85.6748 28.8532 85.9112Z" fill="#fe734a"/>
<path id="Vector_23" d="M24.0896 82.69C24.1953 82.8277 24.2596 82.9809 24.2826 83.1501C24.3031 83.3158 24.282 83.476 24.2193 83.631C24.1533 83.7883 24.0514 83.9197 23.9137 84.0253C23.7726 84.1336 23.6192 84.1979 23.4535 84.2184C23.2844 84.2415 23.1224 84.2216 22.9676 84.159C22.8102 84.0929 22.6787 83.9912 22.573 83.8533C22.4648 83.7124 22.4004 83.5588 22.38 83.3931C22.357 83.224 22.3785 83.0609 22.4445 82.9036C22.5072 82.7486 22.6091 82.6172 22.7501 82.509C22.8879 82.4033 23.0412 82.339 23.2104 82.3159C23.3761 82.2954 23.5377 82.3182 23.6951 82.3843C23.8498 82.4469 23.9814 82.5488 24.0896 82.69Z" fill="#fe734a"/>
<path id="Vector_24" d="M20.4071 79.9523C20.0176 80.1579 19.6269 80.2566 19.2347 80.2479C18.8387 80.2416 18.4774 80.133 18.1509 79.9223C17.8186 79.7101 17.5516 79.4128 17.3501 79.0309C17.1031 78.563 17.0152 78.0971 17.0864 77.6335C17.1577 77.1699 17.3771 76.7693 17.7446 76.4315L18.3019 77.4875C18.1786 77.6532 18.1125 77.8315 18.1034 78.0229C18.0924 78.2108 18.1353 78.3964 18.2321 78.5797C18.3883 78.8756 18.6177 79.0609 18.9205 79.1357C19.2232 79.2105 19.5468 79.1571 19.8913 78.9752C20.2358 78.7934 20.4625 78.5564 20.5716 78.2642C20.6808 77.9721 20.6572 77.678 20.5011 77.3824C20.4043 77.1988 20.2753 77.0588 20.1141 76.9618C19.9509 76.8614 19.7662 76.8152 19.5599 76.8235L19.0027 75.7676C19.4888 75.6548 19.9433 75.6995 20.3663 75.9024C20.7856 76.1071 21.1187 76.4437 21.3657 76.9116C21.5673 77.2935 21.6638 77.6806 21.6554 78.0729C21.6413 78.4631 21.527 78.8228 21.3127 79.1513C21.0983 79.4798 20.7965 79.7468 20.4071 79.9523Z" fill="#fe734a"/>
<path id="Vector_25" d="M18.9842 72.3585C19.1285 72.7523 19.1697 73.1474 19.1078 73.5444C19.0445 73.9372 18.8856 74.2911 18.6311 74.6052C18.3711 74.9169 18.0364 75.1479 17.627 75.298C17.2176 75.4484 16.815 75.4876 16.4191 75.4163C16.0217 75.341 15.6718 75.1741 15.3695 74.9152C15.0656 74.6522 14.8416 74.324 14.6973 73.9306C14.553 73.5371 14.5125 73.1437 14.5758 72.7508C14.6377 72.3539 14.7974 72.0023 15.0548 71.6958C15.3108 71.3855 15.6435 71.1554 16.0529 71.0053C16.4623 70.8552 16.867 70.8151 17.2668 70.8846C17.6627 70.9559 18.0119 71.1211 18.3142 71.38C18.6166 71.6389 18.8399 71.9651 18.9842 72.3585ZM18.0541 72.6997C17.9317 72.3658 17.7227 72.1403 17.4272 72.0231C17.1303 71.9022 16.799 71.9085 16.4333 72.0427C16.0637 72.1781 15.8067 72.3874 15.6624 72.6703C15.5127 72.9506 15.499 73.2577 15.6215 73.5917C15.7454 73.9294 15.9538 74.1598 16.2467 74.2825C16.5382 74.4008 16.8708 74.3916 17.2444 74.2547C17.6141 74.1191 17.8738 73.9112 18.0235 73.631C18.1678 73.3481 18.178 73.0375 18.0541 72.6997Z" fill="#fe734a"/>
<path id="Vector_26" d="M16.7034 65.5547L16.9475 66.6129L14.6761 69.0004L17.3556 68.3827L17.5996 69.4409L13.2555 70.4426L13.0115 69.3843L15.2952 66.9939L12.6034 67.6146L12.3594 66.5563L16.7034 65.5547Z" fill="#fe734a"/>
<path id="Vector_27" d="M11.5 61.9887L12.3626 61.875L12.5169 63.0461L16.0742 62.5773L16.216 63.654L12.6587 64.1228L12.813 65.2939L11.9505 65.4073L11.5 61.9887Z" fill="#fe734a"/>
<path id="Vector_28" d="M14.7784 58.0004L14.7912 59.6642L15.5807 59.9248L15.5895 61.0616L11.1191 59.4829L11.1094 58.2255L15.5549 56.5781L15.5637 57.7276L14.7784 58.0004ZM13.9423 58.2864L12.3145 58.8513L13.9507 59.3851L13.9423 58.2864Z" fill="#fe734a"/>
<path id="Vector_29" d="M13.0643 55.4805C12.6271 55.4279 12.2496 55.2868 11.9319 55.0567C11.6099 54.8261 11.3745 54.5313 11.2257 54.1725C11.0732 53.8088 11.0227 53.4125 11.0742 52.9838C11.1373 52.4582 11.33 52.0252 11.6523 51.6843C11.9746 51.3437 12.383 51.139 12.8773 51.0703L12.735 52.2555C12.5395 52.3216 12.3835 52.4311 12.2672 52.5832C12.1513 52.7315 12.081 52.9085 12.0563 53.1143C12.0164 53.4466 12.0997 53.7294 12.3062 53.9633C12.5126 54.1968 12.8092 54.3371 13.196 54.3833C13.5827 54.4297 13.904 54.3639 14.1599 54.1855C14.4158 54.0074 14.5637 53.7522 14.6036 53.4203C14.6283 53.2142 14.6019 53.0257 14.5244 52.8542C14.4474 52.6787 14.3218 52.5358 14.1474 52.4253L14.2897 51.2398C14.7538 51.4233 15.102 51.7189 15.3346 52.1265C15.5629 52.5332 15.6455 52.9994 15.5824 53.5251C15.531 53.9537 15.3902 54.327 15.1602 54.6448C14.9264 54.9577 14.628 55.1886 14.2648 55.3367C13.9016 55.4851 13.5014 55.533 13.0643 55.4805Z" fill="#fe734a"/>
<path id="Vector_30" d="M12.0957 46.4844L12.9457 46.67L12.6934 47.824L16.1987 48.5901L15.9668 49.651L12.4616 48.8849L12.2093 50.0389L11.3594 49.853L12.0957 46.4844Z" fill="#fe734a"/>
<path id="Vector_31" d="M13.0645 42.3716L15.5438 43.3553C15.7917 43.4537 16.0067 43.4685 16.1889 43.3995C16.3711 43.3305 16.5091 43.1781 16.6028 42.942C16.6965 42.7058 16.7014 42.4983 16.6175 42.3193C16.5337 42.1403 16.3678 42.0015 16.1199 41.9034L13.6407 40.9196L14.0412 39.9102L16.5145 40.8916C16.8844 41.0382 17.166 41.2412 17.3594 41.5001C17.5527 41.759 17.6612 42.048 17.6849 42.3669C17.7102 42.6822 17.658 43.0031 17.5284 43.3296C17.3988 43.6564 17.2195 43.9245 16.9906 44.1344C16.7592 44.3385 16.486 44.4646 16.1708 44.5128C15.8518 44.5593 15.5073 44.5091 15.1374 44.3624L12.6641 43.381L13.0645 42.3716Z" fill="#fe734a"/>
<path id="Vector_32" d="M19.2112 39.089C19.0602 39.3779 18.8779 39.612 18.6644 39.7918C18.4509 39.9717 18.2159 40.0828 17.9595 40.1255C17.7051 40.1645 17.4464 40.1201 17.1837 39.9922L17.7194 38.968C17.8735 39.0295 18.0126 39.0376 18.1365 38.9925C18.2566 38.9455 18.353 38.8525 18.4256 38.7137C18.5002 38.5714 18.5272 38.4421 18.5065 38.326C18.4822 38.2083 18.4119 38.1191 18.2956 38.0582C18.198 38.0071 18.0997 37.9987 18.0006 38.0328C17.9035 38.0634 17.8088 38.1165 17.7165 38.1924C17.6262 38.2645 17.5086 38.3751 17.3639 38.5241C17.1517 38.738 16.964 38.9048 16.8008 39.0249C16.6377 39.1452 16.4488 39.2232 16.2341 39.259C16.0195 39.2948 15.7884 39.248 15.5408 39.1184C15.1731 38.9262 14.9558 38.643 14.8888 38.2686C14.818 37.8925 14.8945 37.4904 15.1182 37.0626C15.3458 36.6276 15.6343 36.3317 15.9837 36.1752C16.3294 36.0168 16.6928 36.0254 17.074 36.2009L16.5295 37.2418C16.398 37.1827 16.274 37.1775 16.1577 37.2265C16.0375 37.2736 15.9421 37.3648 15.8715 37.4996C15.8106 37.6159 15.7935 37.7265 15.82 37.831C15.8427 37.9337 15.9122 38.0154 16.0285 38.0763C16.156 38.143 16.2869 38.1349 16.4209 38.0524C16.555 37.9695 16.73 37.8223 16.946 37.6102C17.1657 37.4003 17.3561 37.2372 17.5174 37.1209C17.6805 37.0005 17.8675 36.9217 18.0784 36.8839C18.2893 36.8461 18.5129 36.8891 18.7493 37.0126C18.9743 37.1304 19.1484 37.2955 19.2714 37.508C19.3963 37.7167 19.4563 37.9583 19.4513 38.2328C19.4463 38.507 19.3663 38.7925 19.2112 39.089Z" fill="#fe734a"/>
<path id="Vector_33" d="M20.8569 33.574C20.7569 33.7158 20.6296 33.8229 20.475 33.8953C20.3228 33.964 20.1635 33.9914 19.9971 33.9779C19.8272 33.9617 19.6713 33.9034 19.5295 33.8035C19.3842 33.701 19.2771 33.5735 19.2082 33.4213C19.136 33.2669 19.1067 33.1064 19.1205 32.9398C19.1367 32.7701 19.1948 32.6142 19.2949 32.4722C19.3973 32.327 19.5247 32.2199 19.6768 32.1509C19.8314 32.0788 19.9937 32.0508 20.1636 32.0669C20.33 32.0808 20.4859 32.1388 20.6312 32.2413C20.773 32.3415 20.8801 32.4688 20.9524 32.6232C21.0212 32.7753 21.0475 32.9364 21.0313 33.1064C21.0175 33.2727 20.9594 33.4285 20.8569 33.574Z" fill="#fe734a"/>
<path id="Vector_34" d="M22.3293 29.2836C22.0168 28.9733 21.806 28.6298 21.6969 28.253C21.5847 27.8732 21.5804 27.496 21.6838 27.1214C21.7872 26.7409 21.991 26.3973 22.2953 26.0909C22.6681 25.7153 23.0864 25.4923 23.5502 25.4217C24.0139 25.3512 24.4618 25.4409 24.8938 25.6908L24.0527 26.538C23.8578 26.4699 23.6677 26.4601 23.4822 26.5087C23.2998 26.5542 23.1355 26.6506 22.9894 26.7979C22.7537 27.0352 22.6455 27.3095 22.6645 27.6208C22.6836 27.9321 22.8314 28.2249 23.1078 28.4993C23.3842 28.7737 23.6781 28.9193 23.9895 28.9361C24.3009 28.9531 24.5745 28.8428 24.8101 28.6054C24.9563 28.4582 25.0515 28.2932 25.0957 28.1104C25.1429 27.9246 25.1317 27.7346 25.0622 27.5402L25.9033 26.693C26.1564 27.1232 26.2493 27.5703 26.1821 28.0346C26.1119 28.4959 25.8905 28.9144 25.5176 29.29C25.2133 29.5962 24.8728 29.8041 24.496 29.9132C24.1192 30.0165 23.742 30.0148 23.3644 29.9083C22.9868 29.8021 22.6418 29.5936 22.3293 29.2836Z" fill="#fe734a"/>
<path id="Vector_35" d="M29.2742 25.5294C28.9417 25.7845 28.5767 25.9418 28.1793 26.0011C27.7853 26.0579 27.4004 26.0118 27.0245 25.8626C26.6493 25.7075 26.3291 25.457 26.0636 25.111C25.7982 24.765 25.6404 24.3925 25.5903 23.9934C25.5436 23.5916 25.5987 23.2079 25.7556 22.842C25.9158 22.4736 26.1622 22.1618 26.4947 21.9067C26.8273 21.6516 27.1905 21.4956 27.5845 21.4388C27.9819 21.3794 28.3651 21.4269 28.7343 21.5812C29.1068 21.7329 29.4258 21.9818 29.6914 22.3277C29.9566 22.6737 30.1157 23.0479 30.1685 23.4505C30.2184 23.8496 30.165 24.2321 30.0083 24.5979C29.8513 24.9638 29.6068 25.2742 29.2742 25.5294ZM28.6711 24.7434C28.9532 24.5269 29.1062 24.2602 29.1296 23.9432C29.1568 23.6237 29.0517 23.3094 28.8146 23.0004C28.5749 22.688 28.2986 22.5052 27.9855 22.4518C27.6733 22.3926 27.376 22.4712 27.0939 22.6877C26.8084 22.9067 26.6508 23.1744 26.6213 23.4905C26.5951 23.8041 26.7031 24.1188 26.9453 24.4345C27.185 24.7469 27.461 24.9327 27.7732 24.992C28.0863 25.0453 28.3856 24.9624 28.6711 24.7434Z" fill="#fe734a"/>
<path id="Vector_36" d="M35.1045 21.3154L34.1676 21.8643L31.2105 20.4097L32.6004 22.7823L31.6634 23.3312L29.4102 19.4845L30.3471 18.9357L33.3105 20.4012L31.9143 18.0176L32.8513 17.4688L35.1045 21.3154Z" fill="#fe734a"/>
<path id="Vector_37" d="M36.9884 15.2656L37.3539 16.0551L36.2821 16.5515L37.7901 19.8073L36.8046 20.2637L35.2966 17.0078L34.2248 17.5042L33.8594 16.7147L36.9884 15.2656Z" fill="#fe734a"/>
<path id="Vector_38" d="M41.6495 17.248L40.0651 17.7557L40.0512 18.587L38.9688 18.9338L39.1445 14.1961L40.3422 13.8125L43.2383 17.5659L42.1437 17.9166L41.6495 17.248ZM41.1276 16.535L40.1035 15.1493L40.0812 16.8702L41.1276 16.535Z" fill="#fe734a"/>
<path id="Vector_39" d="M43.372 14.8963C43.2912 14.4635 43.3128 14.0611 43.4372 13.689C43.5608 13.3128 43.7715 12.9999 44.0694 12.7505C44.3708 12.4961 44.7336 12.3292 45.1582 12.2499C45.6784 12.1528 46.1495 12.2069 46.5709 12.4124C46.9927 12.6179 47.3105 12.9462 47.5238 13.3973L46.3501 13.6165C46.2286 13.4497 46.0776 13.3336 45.8975 13.2682C45.7214 13.202 45.5315 13.188 45.3277 13.2261C44.9989 13.2875 44.7538 13.4517 44.5928 13.7187C44.4314 13.9857 44.3867 14.3106 44.4582 14.6935C44.5298 15.0763 44.6889 15.3632 44.9354 15.554C45.1822 15.7448 45.47 15.8095 45.7988 15.7481C46.0026 15.71 46.1746 15.6283 46.3149 15.5031C46.4595 15.377 46.5582 15.2143 46.6114 15.0148L47.785 14.7956C47.7487 15.2934 47.5711 15.7142 47.2519 16.0581C46.9321 16.3978 46.5121 16.6162 45.9919 16.7133C45.5673 16.7926 45.1692 16.7701 44.7971 16.6458C44.4282 16.5165 44.1188 16.3009 43.8685 15.9987C43.6185 15.6966 43.4528 15.3292 43.372 14.8963Z" fill="#fe734a"/>
<path id="Vector_40" d="M51.7043 11.2656L51.7814 12.1322L50.6048 12.2369L50.9226 15.8108L49.841 15.907L49.5229 12.3331L48.3466 12.4377L48.2695 11.5711L51.7043 11.2656Z" fill="#fe734a"/>
<path id="Vector_41" d="M55.9962 10.9467L55.8011 13.6068C55.7815 13.8728 55.832 14.0824 55.9524 14.2355C56.0727 14.3887 56.2595 14.4746 56.513 14.4932C56.7661 14.5118 56.9656 14.4543 57.1113 14.3206C57.2568 14.187 57.3397 13.9872 57.359 13.7212L57.5544 11.0611L58.6375 11.1406L58.4426 13.7943C58.4135 14.1912 58.3044 14.5207 58.1153 14.7828C57.9262 15.0448 57.6832 15.235 57.3856 15.3532C57.0926 15.4718 56.7707 15.5182 56.4203 15.4925C56.0699 15.4668 55.7604 15.3761 55.4917 15.2205C55.2273 15.061 55.0252 14.8382 54.8846 14.5519C54.7449 14.2615 54.6895 13.9178 54.7184 13.5209L54.9135 10.8672L55.9962 10.9467Z" fill="#fe734a"/>
<path id="Vector_42" d="M61.0038 15.819C60.6828 15.7616 60.4045 15.6581 60.169 15.5084C59.9334 15.3588 59.7568 15.168 59.639 14.9362C59.5256 14.7052 59.4904 14.4452 59.5334 14.1561L60.6713 14.3596C60.6588 14.5251 60.6926 14.6602 60.7729 14.7649C60.854 14.8654 60.9715 14.9294 61.1256 14.957C61.2841 14.9853 61.4154 14.9722 61.5196 14.9178C61.6247 14.8592 61.6891 14.7653 61.7122 14.6361C61.7315 14.5277 61.7099 14.4314 61.6475 14.3472C61.5895 14.2636 61.5104 14.1893 61.4102 14.124C61.3141 14.0596 61.1735 13.9806 60.9879 13.8872C60.7203 13.7491 60.5047 13.6201 60.341 13.5006C60.1774 13.381 60.0463 13.2242 59.9479 13.0303C59.8492 12.8363 59.8243 12.6017 59.8737 12.3267C59.9467 11.9183 60.1517 11.6259 60.4885 11.4496C60.8263 11.2692 61.2327 11.2215 61.7075 11.3064C62.1911 11.3929 62.56 11.5793 62.814 11.8656C63.0689 12.1477 63.1699 12.497 63.1171 12.9133L61.9604 12.7064C61.9774 12.5632 61.9451 12.4435 61.8634 12.3471C61.7826 12.2467 61.6668 12.183 61.517 12.1561C61.3877 12.133 61.2772 12.1498 61.1854 12.2065C61.0941 12.259 61.0373 12.3499 61.0142 12.4791C60.9888 12.6208 61.0355 12.7431 61.1548 12.8462C61.274 12.9492 61.4671 13.0719 61.7341 13.2143C62.0002 13.3608 62.2133 13.4935 62.3726 13.6123C62.536 13.7319 62.6676 13.8866 62.7669 14.0764C62.8662 14.2662 62.8925 14.4924 62.8454 14.755C62.8007 15.005 62.6956 15.2206 62.5299 15.4017C62.3683 15.5835 62.1558 15.7133 61.8926 15.7909C61.6293 15.8685 61.3329 15.8779 61.0038 15.819Z" fill="#fe734a"/>
<path id="Vector_43" d="M66.7657 15.7273C66.6003 15.6744 66.46 15.585 66.3448 15.4591C66.2337 15.3346 66.1595 15.1908 66.1229 15.0279C66.0874 14.861 66.0963 14.6948 66.1491 14.5296C66.2034 14.3602 66.2929 14.2199 66.4173 14.1087C66.5432 13.9934 66.6875 13.9174 66.8506 13.8807C67.0174 13.8453 67.1837 13.854 67.3488 13.907C67.5182 13.9612 67.6585 14.0506 67.7697 14.1752C67.8851 14.301 67.9605 14.4474 67.996 14.6144C68.0326 14.7773 68.0237 14.9434 67.9694 15.1127C67.9166 15.278 67.8271 15.4183 67.7013 15.5336C67.5768 15.6449 67.4311 15.7182 67.2642 15.7536C67.1011 15.7904 66.9352 15.7816 66.7657 15.7273Z" fill="#fe734a"/>
<path id="Vector_44" d="M71.5029 15.9207C71.707 15.5305 71.9728 15.2277 72.3007 15.0121C72.6304 14.7928 72.9895 14.6772 73.378 14.6654C73.772 14.6517 74.1606 14.745 74.543 14.9451C75.0121 15.1904 75.3487 15.5242 75.5531 15.9464C75.7574 16.3687 75.8039 16.823 75.6928 17.3096L74.6348 16.7562C74.6426 16.5499 74.5956 16.3654 74.4945 16.2026C74.397 16.0418 74.2564 15.9132 74.0725 15.8171C73.7764 15.6621 73.4822 15.6397 73.1904 15.7499C72.8988 15.86 72.6627 16.0877 72.482 16.4328C72.3016 16.778 72.2493 17.1018 72.3253 17.4043C72.4012 17.7067 72.5871 17.9355 72.8835 18.0905C73.0674 18.1867 73.253 18.2289 73.4409 18.2172C73.6323 18.2074 73.8104 18.1406 73.9755 18.0167L75.0335 18.5701C74.6975 18.9389 74.2974 19.1598 73.8341 19.2327C73.3728 19.3019 72.9075 19.2139 72.4387 18.9686C72.0559 18.7685 71.7569 18.5045 71.5413 18.1768C71.3314 17.8472 71.2214 17.4864 71.2116 17.0942C71.2018 16.702 71.2988 16.3108 71.5029 15.9207Z" fill="#fe734a"/>
<path id="Vector_45" d="M76.9671 21.3468C76.6248 21.1052 76.3658 20.8036 76.1909 20.4419C76.0194 20.0827 75.949 19.7014 75.9796 19.2982C76.0163 18.8939 76.16 18.5136 76.4114 18.1572C76.6629 17.8009 76.9714 17.5394 77.3378 17.3728C77.7072 17.2087 78.09 17.1471 78.486 17.188C78.8853 17.2314 79.2565 17.3739 79.5988 17.6155C79.9415 17.8571 80.1984 18.1575 80.3698 18.5167C80.5448 18.8784 80.6135 19.2584 80.5759 19.6568C80.5419 20.0576 80.3993 20.4362 80.1479 20.7926C79.8964 21.1489 79.5867 21.4121 79.2181 21.5821C78.8518 21.7487 78.4707 21.8115 78.075 21.7706C77.6789 21.7296 77.3098 21.5884 76.9671 21.3468ZM77.5381 20.5372C77.8288 20.7422 78.129 20.8088 78.4384 20.7371C78.7516 20.6678 79.0204 20.474 79.2449 20.1557C79.4718 19.8339 79.5642 19.5157 79.522 19.2009C79.4857 18.8852 79.3223 18.6248 79.0316 18.4199C78.7375 18.2125 78.4352 18.1417 78.1244 18.2075C77.8172 18.2758 77.549 18.4725 77.3196 18.7977C77.0927 19.1195 76.9974 19.4383 77.0338 19.754C77.0759 20.0687 77.2442 20.3298 77.5381 20.5372Z" fill="#fe734a"/>
<path id="Vector_46" d="M82.7235 25.6415L81.9202 24.9108L82.4271 21.6545L80.5768 23.6886L79.7734 22.9578L82.7735 19.6602L83.5768 20.3909L83.0613 23.6565L84.9202 21.6131L85.7236 22.3439L82.7235 25.6415Z" fill="#fe734a"/>
<path id="Vector_47" d="M89.0185 25.5898L88.3751 26.1753L87.5801 25.3015L84.9262 27.716L84.1953 26.9128L86.8495 24.4983L86.0546 23.6245L86.6983 23.0391L89.0185 25.5898Z" fill="#fe734a"/>
<path id="Vector_48" d="M88.6146 30.7377L87.6557 29.3778L86.8584 29.614L86.2031 28.6849L90.7761 27.4336L91.5009 28.4611L88.7875 32.3487L88.1247 31.4094L88.6146 30.7377ZM89.1385 30.0262L90.154 28.634L88.5055 29.1284L89.1385 30.0262Z" fill="#fe734a"/>
<path id="Vector_49" d="M91.3981 31.7222C91.7867 31.5152 92.1772 31.415 92.5695 31.4222C92.9653 31.4271 93.3269 31.5342 93.6543 31.7438C93.9874 31.9548 94.2556 32.251 94.4585 32.6323C94.7073 33.0994 94.7968 33.5647 94.7272 34.0288C94.6577 34.4927 94.4397 34.894 94.0734 35.2331L93.5123 34.1792C93.6349 34.0132 93.7005 33.8343 93.7088 33.6429C93.7192 33.4553 93.6756 33.2697 93.5781 33.0867C93.4208 32.7914 93.1907 32.6069 92.8876 32.5333C92.5848 32.4597 92.2612 32.5142 91.9174 32.6975C91.5736 32.8805 91.3479 33.1184 91.2396 33.4108C91.1317 33.7035 91.1562 33.9974 91.3135 34.2924C91.4111 34.4757 91.5404 34.6154 91.7021 34.7115C91.8657 34.8114 92.0505 34.857 92.2569 34.8478L92.818 35.9017C92.3322 36.0163 91.8776 35.9732 91.4538 35.7718C91.0338 35.5685 90.6993 35.2334 90.4507 34.7664C90.2478 34.3853 90.1497 33.9985 90.1566 33.6062C90.1693 33.2157 90.2822 32.856 90.4955 32.5267C90.7085 32.1973 91.0096 31.9291 91.3981 31.7222Z" fill="#fe734a"/>
<path id="Vector_50" d="M97.3652 38.6L96.5616 38.9328L96.1095 37.8417L92.7946 39.2146L92.3789 38.2115L95.6939 36.8383L95.2421 35.7472L96.0458 35.4141L97.3652 38.6Z" fill="#fe734a"/>
<path id="Vector_51" d="M98.9245 42.5493L96.3277 43.1586C96.0679 43.2195 95.8832 43.3304 95.7729 43.4909C95.6627 43.6517 95.6367 43.8554 95.6947 44.1028C95.7527 44.3502 95.8673 44.5234 96.0385 44.6224C96.2094 44.7214 96.4247 44.7405 96.6845 44.6796L99.2813 44.0702L99.5293 45.1276L96.9388 45.7352C96.5511 45.8261 96.2042 45.8206 95.8976 45.7185C95.5911 45.6166 95.3368 45.4413 95.135 45.1931C94.9344 44.9489 94.7938 44.6556 94.7135 44.3135C94.6333 43.9715 94.6272 43.6488 94.6954 43.346C94.7684 43.046 94.9205 42.7862 95.1517 42.5669C95.387 42.3463 95.6985 42.1907 96.0858 42.0998L98.6763 41.4922L98.9245 42.5493Z" fill="#fe734a"/>
<path id="Vector_52" d="M95.7452 48.7309C95.7039 48.4076 95.7192 48.1109 95.7917 47.8415C95.8639 47.5719 95.9929 47.3462 96.1788 47.1643C96.3653 46.9871 96.6028 46.8754 96.8915 46.8301L97.0381 47.9766C96.8765 48.0142 96.7578 48.0872 96.6819 48.1949C96.6103 48.3022 96.5843 48.4336 96.6043 48.5889C96.6248 48.7485 96.6764 48.87 96.7596 48.9532C96.847 49.036 96.9559 49.0689 97.086 49.0525C97.1952 49.0383 97.2806 48.989 97.3424 48.9044C97.4047 48.8238 97.4518 48.726 97.4841 48.6108C97.517 48.5 97.5502 48.3421 97.5837 48.1374C97.6354 47.8404 97.6937 47.5962 97.7589 47.4042C97.8239 47.2123 97.9341 47.0402 98.0897 46.8881C98.2453 46.736 98.4615 46.6422 98.7389 46.6066C99.1502 46.5541 99.4906 46.6621 99.7599 46.9308C100.033 47.1987 100.2 47.5722 100.262 48.0511C100.324 48.5381 100.256 48.9459 100.059 49.2742C99.8664 49.6018 99.5636 49.8027 99.1505 49.8769L99.0016 48.7116C99.1433 48.6847 99.2478 48.618 99.3154 48.5112C99.3869 48.4038 99.4129 48.2748 99.3936 48.1236C99.3771 47.9934 99.3281 47.8929 99.2464 47.8222C99.169 47.7512 99.0651 47.7238 98.9349 47.7405C98.7923 47.7587 98.6895 47.8401 98.6269 47.9847C98.5643 48.1293 98.5051 48.3502 98.4491 48.6478C98.3891 48.9457 98.3261 49.1884 98.2606 49.376C98.1954 49.5677 98.0871 49.7395 97.9359 49.8913C97.7846 50.0429 97.5768 50.1355 97.3121 50.1696C97.0601 50.2016 96.8228 50.1658 96.6005 50.0619C96.3785 49.9623 96.1912 49.7984 96.0382 49.5706C95.8852 49.3426 95.7877 49.0626 95.7452 48.7309Z" fill="#fe734a"/>
</g>
<defs>
<filter id="filter0_d_1_5641" x="-15.6484" y="-15.6484" width="143.299" height="143.301" filterUnits="userSpaceOnUse" color-interpolation-filters="sRGB">
<feFlood flood-opacity="0" result="BackgroundImageFix"/>
<feColorMatrix in="SourceAlpha" type="matrix" values="0 0 0 0 0 0 0 0 0 0 0 0 0 0 0 0 0 0 127 0" result="hardAlpha"/>
<feOffset/>
<feGaussianBlur stdDeviation="11"/>
<feComposite in2="hardAlpha" operator="out"/>
<feColorMatrix type="matrix" values="0 0 0 0 0 0 0 0 0 0 0 0 0 0 0 0 0 0 0.04 0"/>
<feBlend mode="normal" in2="BackgroundImageFix" result="effect1_dropShadow_1_5641"/>
<feBlend mode="normal" in="SourceGraphic" in2="effect1_dropShadow_1_5641" result="shape"/>
</filter>
<filter id="filter1_d_1_5641" x="-10.6797" y="-5.67969" width="133.361" height="133.359" filterUnits="userSpaceOnUse" color-interpolation-filters="sRGB">
<feFlood flood-opacity="0" result="BackgroundImageFix"/>
<feColorMatrix in="SourceAlpha" type="matrix" values="0 0 0 0 0 0 0 0 0 0 0 0 0 0 0 0 0 0 127 0" result="hardAlpha"/>
<feOffset dy="5"/>
<feGaussianBlur stdDeviation="14"/>
<feComposite in2="hardAlpha" operator="out"/>
<feColorMatrix type="matrix" values="0 0 0 0 0.878431 0 0 0 0 0.309804 0 0 0 0 0 0 0 0 0.3 0"/>
<feBlend mode="normal" in2="BackgroundImageFix" result="effect1_dropShadow_1_5641"/>
<feBlend mode="normal" in="SourceGraphic" in2="effect1_dropShadow_1_5641" result="shape"/>
</filter>
<clipPath id="clip0_1_5641">
<rect width="112" height="112" fill="white"/>
</clipPath>
</defs>
</svg>
