<svg width="16" height="17" viewBox="0 0 16 17" fill="none" xmlns="http://www.w3.org/2000/svg">
<g clip-path="url(#clip0_456_2132)">
<path d="M2.66835 4.5V14.2778C2.66421 14.4488 2.69382 14.619 2.75547 14.7785C2.81712 14.9381 2.90961 15.084 3.02765 15.2078C3.14569 15.3316 3.28698 15.431 3.44343 15.5002C3.59988 15.5694 3.76844 15.6071 3.93946 15.6111H12.0417C12.2146 15.61 12.3855 15.5744 12.5446 15.5065C12.7036 15.4386 12.8475 15.3397 12.9679 15.2156C13.0883 15.0915 13.1828 14.9446 13.2458 14.7836C13.3088 14.6226 13.3392 14.4506 13.335 14.2778V4.5H2.66835ZM6.66835 13.3889H5.77946V6.72222H6.66835V13.3889ZM10.2239 13.3889H9.33502V6.72222H10.2239V13.3889Z" fill="#E04F00"/>
<path d="M13.6573 2.72201H10.2218V2.27756C10.2218 2.04181 10.1281 1.81572 9.96144 1.64902C9.79474 1.48232 9.56865 1.38867 9.3329 1.38867H6.57734C6.35732 1.41078 6.15344 1.51411 6.00552 1.67847C5.85759 1.84283 5.77624 2.05643 5.77734 2.27756V2.72201H2.22179C2.10391 2.72201 1.99087 2.76883 1.90752 2.85218C1.82417 2.93553 1.77734 3.04858 1.77734 3.16645C1.77734 3.28432 1.82417 3.39737 1.90752 3.48072C1.99087 3.56407 2.10391 3.61089 2.22179 3.61089H13.6573C13.7752 3.61089 13.8883 3.56407 13.9716 3.48072C14.055 3.39737 14.1018 3.28432 14.1018 3.16645C14.1018 3.04858 14.055 2.93553 13.9716 2.85218C13.8883 2.76883 13.7752 2.72201 13.6573 2.72201Z" fill="#E04F00"/>
</g>
<defs>
<clipPath id="clip0_456_2132">
<rect width="16" height="16" fill="white" transform="translate(0 0.5)"/>
</clipPath>
</defs>
</svg>
