<svg width="1127" height="541" viewBox="0 0 1127 541" fill="none" xmlns="http://www.w3.org/2000/svg">
<path d="M1126.52 411H0L31.9928 541H1096.25L1126.52 411Z" fill="white"/>
<path d="M106.821 474.891H111.509C116.102 474.891 119.493 474.125 121.68 472.594C123.868 471.062 124.962 468.656 124.962 465.375C124.962 462.125 123.837 459.812 121.587 458.438C119.368 457.062 115.915 456.375 111.227 456.375H106.821V474.891ZM106.821 486.703V513H92.2898V444.469H112.259C121.571 444.469 128.462 446.172 132.93 449.578C137.399 452.953 139.634 458.094 139.634 465C139.634 469.031 138.524 472.625 136.305 475.781C134.087 478.906 130.946 481.359 126.884 483.141C137.196 498.547 143.915 508.5 147.04 513H130.915L114.555 486.703H106.821ZM223.934 513H184.465V444.469H223.934V456.375H198.996V471.422H222.199V483.328H198.996V501H223.934V513ZM307.53 493.969C307.53 500.156 305.296 505.031 300.827 508.594C296.39 512.156 290.202 513.938 282.265 513.938C274.952 513.938 268.484 512.562 262.859 509.812V496.312C267.484 498.375 271.39 499.828 274.577 500.672C277.796 501.516 280.734 501.938 283.39 501.938C286.577 501.938 289.015 501.328 290.702 500.109C292.421 498.891 293.28 497.078 293.28 494.672C293.28 493.328 292.905 492.141 292.155 491.109C291.405 490.047 290.296 489.031 288.827 488.062C287.39 487.094 284.437 485.547 279.968 483.422C275.78 481.453 272.64 479.562 270.546 477.75C268.452 475.938 266.78 473.828 265.53 471.422C264.28 469.016 263.655 466.203 263.655 462.984C263.655 456.922 265.702 452.156 269.796 448.688C273.921 445.219 279.609 443.484 286.859 443.484C290.421 443.484 293.812 443.906 297.03 444.75C300.28 445.594 303.671 446.781 307.202 448.312L302.515 459.609C298.859 458.109 295.827 457.062 293.421 456.469C291.046 455.875 288.702 455.578 286.39 455.578C283.64 455.578 281.53 456.219 280.062 457.5C278.593 458.781 277.859 460.453 277.859 462.516C277.859 463.797 278.155 464.922 278.749 465.891C279.343 466.828 280.28 467.75 281.562 468.656C282.874 469.531 285.952 471.125 290.796 473.438C297.202 476.5 301.593 479.578 303.968 482.672C306.343 485.734 307.53 489.5 307.53 493.969ZM375.19 513H360.659V456.562H342.049V444.469H393.799V456.562H375.19V513ZM475.099 513L470.13 496.688H445.146L440.177 513H424.521L448.709 444.188H466.474L490.755 513H475.099ZM466.662 484.5C462.068 469.719 459.474 461.359 458.88 459.422C458.318 457.484 457.912 455.953 457.662 454.828C456.63 458.828 453.677 468.719 448.802 484.5H466.662ZM584.009 444.469V488.812C584.009 493.875 582.868 498.312 580.587 502.125C578.337 505.938 575.071 508.859 570.79 510.891C566.509 512.922 561.446 513.938 555.602 513.938C546.79 513.938 539.946 511.688 535.071 507.188C530.196 502.656 527.759 496.469 527.759 488.625V444.469H542.243V486.422C542.243 491.703 543.305 495.578 545.43 498.047C547.555 500.516 551.071 501.75 555.977 501.75C560.727 501.75 564.165 500.516 566.29 498.047C568.446 495.547 569.524 491.641 569.524 486.328V444.469H584.009ZM644.121 474.891H648.809C653.402 474.891 656.793 474.125 658.98 472.594C661.168 471.062 662.262 468.656 662.262 465.375C662.262 462.125 661.137 459.812 658.887 458.438C656.668 457.062 653.215 456.375 648.527 456.375H644.121V474.891ZM644.121 486.703V513H629.59V444.469H649.559C658.871 444.469 665.762 446.172 670.23 449.578C674.699 452.953 676.934 458.094 676.934 465C676.934 469.031 675.824 472.625 673.605 475.781C671.387 478.906 668.246 481.359 664.184 483.141C674.496 498.547 681.215 508.5 684.34 513H668.215L651.855 486.703H644.121ZM763.718 513L758.749 496.688H733.765L728.796 513H713.14L737.327 444.188H755.093L779.374 513H763.718ZM755.28 484.5C750.687 469.719 748.093 461.359 747.499 459.422C746.937 457.484 746.53 455.953 746.28 454.828C745.249 458.828 742.296 468.719 737.421 484.5H755.28ZM877.643 513H859.174L829.362 461.156H828.94C829.534 470.312 829.83 476.844 829.83 480.75V513H816.846V444.469H835.174L864.94 495.797H865.268C864.799 486.891 864.565 480.594 864.565 476.906V444.469H877.643V513ZM950.177 513H935.646V456.562H917.037V444.469H968.787V456.562H950.177V513ZM1048.59 493.969C1048.59 500.156 1046.35 505.031 1041.88 508.594C1037.45 512.156 1031.26 513.938 1023.32 513.938C1016.01 513.938 1009.54 512.562 1003.91 509.812V496.312C1008.54 498.375 1012.45 499.828 1015.63 500.672C1018.85 501.516 1021.79 501.938 1024.45 501.938C1027.63 501.938 1030.07 501.328 1031.76 500.109C1033.48 498.891 1034.34 497.078 1034.34 494.672C1034.34 493.328 1033.96 492.141 1033.21 491.109C1032.46 490.047 1031.35 489.031 1029.88 488.062C1028.45 487.094 1025.49 485.547 1021.02 483.422C1016.84 481.453 1013.7 479.562 1011.6 477.75C1009.51 475.938 1007.84 473.828 1006.59 471.422C1005.34 469.016 1004.71 466.203 1004.71 462.984C1004.71 456.922 1006.76 452.156 1010.85 448.688C1014.98 445.219 1020.66 443.484 1027.91 443.484C1031.48 443.484 1034.87 443.906 1038.09 444.75C1041.34 445.594 1044.73 446.781 1048.26 448.312L1043.57 459.609C1039.91 458.109 1036.88 457.062 1034.48 456.469C1032.1 455.875 1029.76 455.578 1027.45 455.578C1024.7 455.578 1022.59 456.219 1021.12 457.5C1019.65 458.781 1018.91 460.453 1018.91 462.516C1018.91 463.797 1019.21 464.922 1019.81 465.891C1020.4 466.828 1021.34 467.75 1022.62 468.656C1023.93 469.531 1027.01 471.125 1031.85 473.438C1038.26 476.5 1042.65 479.578 1045.02 482.672C1047.4 485.734 1048.59 489.5 1048.59 493.969Z" fill="black"/>
<path d="M73.7577 328.355C60.5617 333.992 52.7831 335.032 49.0743 334.851L49.0472 334.85C48.9145 333.866 48.8262 332.362 48.978 330.2C49.3506 324.89 51.0668 317.731 54.5192 309.386C61.4655 292.595 73.8442 274.809 88.253 262.619C97.8799 254.475 106.79 250.078 114.598 248.636C117.547 257.844 120.257 270.847 120.244 288.28C120.227 311.094 115.539 342.398 99.5411 383.508H151.588C164.502 345.593 169.126 314.097 169.145 288.316C169.174 250.461 159.265 226.433 153.326 214.179L148.175 203.553L136.649 200.98C105.597 194.05 77.2411 207.882 56.6692 225.285C35.7918 242.947 18.9932 267.338 9.33176 290.692C4.48034 302.419 1.03511 314.825 0.196336 326.776C-0.620127 338.409 0.88697 352.198 8.97612 363.917C17.2964 375.971 30.0257 382.205 44.052 383.508H55.9755C67.5425 382.531 79.9606 378.882 92.968 373.325L73.7577 328.355Z" fill="white"/>
<path d="M238.763 335.467C240.01 306.617 244.059 270.475 252.727 237.214C258.33 215.712 265.614 196.397 274.653 181.27C283.734 166.072 293.601 156.714 303.75 152.274L284.149 107.473C261.486 117.388 244.858 135.797 232.674 156.187C220.447 176.649 211.696 200.744 205.405 224.883C192.832 273.132 189.099 325.485 189.443 359.251L189.69 383.452H262.195C272.358 383.452 285.549 380.152 295.552 373.574C306.254 366.536 313.941 356.019 317.571 342.443L270.328 329.813C269.732 332.043 269.115 332.438 268.743 332.676C268.722 332.69 268.702 332.703 268.683 332.716C267.621 333.414 264.977 334.575 259.332 335.222C253.762 335.86 247.104 335.816 239.035 335.479L238.763 335.467Z" fill="white"/>
<path fill-rule="evenodd" clip-rule="evenodd" d="M449.488 0L466.705 17.0733C528.285 78.1405 549.798 157.318 557.414 245.604C560.807 284.927 561.489 340.645 561.489 383.845L512.587 383.845C512.587 343.746 511.983 294.609 509.355 258.191C505.317 254.59 500.578 251.63 495.766 249.408C489.622 246.569 485.388 245.83 484.344 245.648C484.115 245.608 484.039 245.595 484.13 245.592L483.767 245.603H418.728C413.3 245.603 405.439 248.006 397.574 252.425C394.376 254.222 391.674 256.08 389.657 257.694C386.999 294.161 386.389 343.563 386.389 383.845L337.488 383.845C337.488 340.645 338.169 284.927 341.562 245.604C349.178 157.318 370.691 78.1405 432.271 17.0733L449.488 0ZM396.549 200.053C403.575 198.009 411.084 196.701 418.728 196.701H483.127C488.959 196.594 495.63 197.744 502.374 199.745C493.595 149.135 477.677 106.414 449.488 70.9893C421.241 106.486 405.316 149.308 396.549 200.053Z" fill="white"/>
<path fill-rule="evenodd" clip-rule="evenodd" d="M634.209 196.907C624.844 173.954 614.266 159.013 599.701 149.65L626.145 108.515C661.608 131.312 678.168 169.477 690.637 210.274C706.573 262.415 711.103 322.217 710.725 359.248L710.478 383.45C697.846 383.657 654.547 383.45 640.753 383.45C626.959 383.45 614.44 375.156 605.417 367.071C595.846 358.495 590.22 346.938 588.639 333.451C588.109 328.932 587.471 324.04 586.815 319.006C585.594 309.641 584.309 299.784 583.535 290.921C582.314 276.929 581.898 261.451 585.251 247.03C588.783 231.845 596.707 217.079 612.153 206.744C618.734 202.339 626.121 199.121 634.209 196.907ZM649.041 243.593C656.528 274.687 660.166 307.761 661.372 334.703C655.179 334.609 649.727 334.236 644.76 333.175C640.045 332.168 638.397 330.962 638.052 330.652C637.953 330.563 637.912 330.517 637.832 330.357C637.734 330.159 637.402 329.412 637.208 327.757C636.505 321.763 635.78 316.237 635.089 310.973L635.089 310.97C633.974 302.478 632.95 294.666 632.252 286.67C631.153 274.079 631.317 264.835 632.882 258.107C634.269 252.145 636.432 249.337 639.349 247.385C641.237 246.122 644.269 244.684 649.041 243.593Z" fill="white"/>
<path fill-rule="evenodd" clip-rule="evenodd" d="M775.177 211.421C776.388 210.872 777.641 210.333 778.926 209.803C775.604 204.595 772.321 200.015 768.43 195.478C759.823 185.441 747.488 174.909 723.649 160.755L748.616 118.707C775.256 134.524 792.347 148.246 805.552 163.646C816.703 176.65 824.55 190.381 832.639 204.539L832.666 204.586C833.831 206.624 835 208.67 836.185 210.724L836.898 211.96L837.463 213.271C858.857 262.95 858.342 324.645 857.989 359.249L857.742 383.45C849.359 383.536 791.215 383.45 781.953 383.45C772.69 383.45 762.369 377.04 753.093 369.095C743.181 360.604 737.49 348.951 735.904 335.424C733.089 311.406 732.026 292.038 733.183 276.328C734.346 260.536 737.87 246.568 745.786 234.899C753.884 222.962 764.734 216.148 775.177 211.421ZM799.909 254.062C806.964 280.273 808.773 309.449 809.106 335.032C801.703 335.096 795.838 334.828 791.215 334.003C786.951 333.241 785.348 332.273 784.986 332.017C784.893 331.804 784.637 331.125 784.473 329.729C781.787 306.817 781.134 291.037 781.953 279.918C782.765 268.881 784.907 264.338 786.255 262.352C787.42 260.634 789.428 258.648 795.345 255.969C796.809 255.307 798.316 254.681 799.909 254.062Z" fill="white"/>
<path fill-rule="evenodd" clip-rule="evenodd" d="M899.934 174.81C894.967 166.221 889.142 157.333 882.302 147.877L842.681 176.54C866.778 209.85 874.347 231.738 877.876 262.975C878 285.079 881.048 316.466 884.899 345.039C886.692 358.343 888.737 371.617 890.866 383.508H940.61C938.23 371.318 935.663 355.576 933.363 338.506C929.516 309.973 926.773 280.438 926.773 261.589C926.773 232.422 927.793 211.942 947.058 196.061L915.953 158.328C909.619 163.549 904.337 169.085 899.934 174.81Z" fill="white"/>
<path d="M1068.55 311.915C1071.03 319.128 1074.5 332.117 1076.31 346.439C1078.11 360.655 1077.97 373.829 1075.34 383.508H1125.13C1127.24 368.581 1126.47 353.319 1124.82 340.299C1122.53 322.192 1118.17 305.709 1114.63 295.535L1114.52 295.215L1114.4 294.899C1105.28 270.842 1088.41 245.397 1067.25 226.884C1046.45 208.681 1017.37 193.848 985.415 200.98L973.889 203.553L968.738 214.179C962.799 226.433 952.891 250.461 952.919 288.317C952.938 314.097 957.562 345.593 970.476 383.508H1022.52C1006.53 342.398 1001.84 311.094 1001.82 288.28C1001.81 270.849 1004.52 257.847 1007.47 248.639C1015.63 250.147 1024.98 254.875 1035.05 263.683C1049.75 276.551 1062.09 295.03 1068.55 311.915Z" fill="white"/>
<path fill-rule="evenodd" clip-rule="evenodd" d="M934.388 92.877C935.772 95.8075 938.155 99.1744 942.972 104.336L907.222 137.702C900.997 131.032 894.703 123.357 890.172 113.766C885.48 103.834 883.294 93.1953 883.294 81.1877H932.196C932.196 86.9267 933.165 90.288 934.388 92.877Z" fill="white"/>
</svg>
