<svg width="148" height="66" viewBox="0 0 148 66" fill="none" xmlns="http://www.w3.org/2000/svg">
<g clip-path="url(#clip0_1_6420)">
<path d="M147.937 53.3203H0L4.20136 65.9972H143.962L147.937 53.3203Z" fill="#FE7349"/>
<path d="M10.7825 62.469L9.33791 57.7376H9.30097C9.35296 58.7 9.37895 59.3422 9.37895 59.664V62.469H8.24219V56.4382H9.974L11.3939 61.05H11.4185L12.9246 56.4382H14.6565V62.469H13.4704V59.6145C13.4704 59.4797 13.4718 59.3243 13.4746 59.1482C13.48 58.9723 13.4992 58.5047 13.532 57.7457H13.4951L11.9479 62.469H10.7825ZM19.6261 62.469H16.1708V56.4382H19.6261V57.486H17.4429V58.8101H19.4743V59.8577H17.4429V61.413H19.6261V62.469ZM25.8598 59.3957C25.8598 60.3885 25.578 61.149 25.0145 61.677C24.4536 62.205 23.6425 62.469 22.5809 62.469H20.882V56.4382H22.7656C23.745 56.4382 24.5057 56.6981 25.0474 57.2177C25.5891 57.7376 25.8598 58.4636 25.8598 59.3957ZM24.5385 59.4287C24.5385 58.1336 23.9693 57.486 22.8313 57.486H22.1541V61.413H22.7C23.9256 61.413 24.5385 60.7515 24.5385 59.4287ZM27.1033 62.469V56.4382H28.3755V62.469H27.1033ZM32.2002 62.469H30.9281V57.5025H29.2989V56.4382H33.8295V57.5025H32.2002V62.469ZM38.2082 62.469H34.7528V56.4382H38.2082V57.486H36.025V58.8101H38.0564V59.8577H36.025V61.413H38.2082V62.469ZM40.7361 59.1152H41.1465C41.5488 59.1152 41.8456 59.0479 42.0372 58.9132C42.2286 58.7784 42.3244 58.5667 42.3244 58.278C42.3244 57.9919 42.2259 57.7884 42.0289 57.6675C41.8347 57.5464 41.5323 57.486 41.122 57.486H40.7361V59.1152ZM40.7361 60.1547V62.469H39.464V56.4382H41.2122C42.0276 56.4382 42.6309 56.588 43.0221 56.8877C43.4133 57.1847 43.6088 57.6371 43.6088 58.245C43.6088 58.5997 43.5118 58.9159 43.3175 59.1937C43.1233 59.4686 42.8483 59.6846 42.4926 59.8412C43.3954 61.197 43.9837 62.073 44.2573 62.469H42.8456L41.4134 60.1547H40.7361ZM46.2845 59.1152H46.6949C47.0971 59.1152 47.3939 59.0479 47.5855 58.9132C47.777 58.7784 47.8727 58.5667 47.8727 58.278C47.8727 57.9919 47.7742 57.7884 47.5772 57.6675C47.383 57.5464 47.0807 57.486 46.6703 57.486H46.2845V59.1152ZM46.2845 60.1547V62.469H45.0124V56.4382H46.7605C47.5759 56.4382 48.1792 56.588 48.5704 56.8877C48.9616 57.1847 49.1572 57.6371 49.1572 58.245C49.1572 58.5997 49.0601 58.9159 48.8659 59.1937C48.6717 59.4686 48.3967 59.6846 48.0409 59.8412C48.9438 61.197 49.5321 62.073 49.8056 62.469H48.3939L46.9617 60.1547H46.2845ZM54.2337 62.469L53.7986 61.0335H51.6113L51.1763 62.469H49.8056L51.9232 56.4135H53.4786L55.6043 62.469H54.2337ZM53.495 59.961C53.0928 58.6601 52.8657 57.9245 52.8137 57.7541C52.7645 57.5835 52.7289 57.4487 52.7071 57.3497C52.6167 57.7018 52.3582 58.5722 51.9314 59.961H53.495ZM61.6862 62.469H60.0692L57.4592 57.9067H57.4223C57.4743 58.7124 57.5003 59.2871 57.5003 59.631V62.469H56.3635V56.4382H57.9681L60.5741 60.9551H60.6028C60.5617 60.1712 60.5412 59.6171 60.5412 59.2927V56.4382H61.6862V62.469ZM66.6558 62.469H63.2005V56.4382H66.6558V57.486H64.4726V58.8101H66.504V59.8577H64.4726V61.413H66.6558V62.469ZM71.5846 62.469L71.1496 61.0335H68.9622L68.5272 62.469H67.1566L69.2741 56.4135H70.8295L72.9552 62.469H71.5846ZM70.8459 59.961C70.4437 58.6601 70.2166 57.9245 70.1646 57.7541C70.1154 57.5835 70.0798 57.4487 70.058 57.3497C69.9677 57.7018 69.7091 58.5722 69.2823 59.961H70.8459ZM79.0371 62.469H77.4202L74.8102 57.9067H74.7733C74.8253 58.7124 74.8513 59.2871 74.8513 59.631V62.469H73.7144V56.4382H75.319L77.925 60.9551H77.9537C77.9126 60.1712 77.8921 59.6171 77.8921 59.2927V56.4382H79.0371V62.469ZM84.0068 59.1152H84.4172C84.8194 59.1152 85.1162 59.0479 85.3078 58.9132C85.4992 58.7784 85.595 58.5667 85.595 58.278C85.595 57.9919 85.4965 57.7884 85.2995 57.6675C85.1053 57.5464 84.803 57.486 84.3926 57.486H84.0068V59.1152ZM84.0068 60.1547V62.469H82.7346V56.4382H84.4828C85.2982 56.4382 85.9015 56.588 86.2927 56.8877C86.6839 57.1847 86.8794 57.6371 86.8794 58.245C86.8794 58.5997 86.7824 58.9159 86.5882 59.1937C86.3939 59.4686 86.1189 59.6846 85.7632 59.8412C86.666 61.197 87.2544 62.073 87.5279 62.469H86.1162L84.684 60.1547H84.0068ZM91.7384 62.469H88.283V56.4382H91.7384V57.486H89.5551V58.8101H91.5865V59.8577H89.5551V61.413H91.7384V62.469ZM96.5358 60.7942C96.5358 61.3387 96.3401 61.7677 95.9489 62.0812C95.5605 62.3947 95.0188 62.5515 94.3238 62.5515C93.6836 62.5515 93.1172 62.4304 92.6248 62.1885V61.0005C93.0298 61.182 93.3717 61.3097 93.6508 61.3841C93.9326 61.4582 94.1897 61.4955 94.4223 61.4955C94.7014 61.4955 94.9148 61.4417 95.0625 61.3346C95.213 61.2272 95.2883 61.0678 95.2883 60.8561C95.2883 60.7378 95.2554 60.6332 95.1898 60.5426C95.1241 60.449 95.0269 60.3596 94.8984 60.2745C94.7726 60.1892 94.514 60.053 94.1228 59.8661C93.7561 59.6927 93.4811 59.5264 93.2978 59.367C93.1146 59.2074 92.9682 59.0218 92.8588 58.8101C92.7493 58.5983 92.6946 58.3508 92.6946 58.0676C92.6946 57.534 92.8738 57.1147 93.2321 56.8095C93.5933 56.5042 94.0913 56.3516 94.7259 56.3516C95.0378 56.3516 95.3347 56.3887 95.6166 56.463C95.901 56.5372 96.1979 56.6417 96.507 56.7765L96.0967 57.7706C95.7765 57.6386 95.5112 57.5464 95.3005 57.4942C95.0926 57.4419 94.8875 57.4157 94.685 57.4157C94.4442 57.4157 94.2595 57.4721 94.1309 57.585C94.0023 57.6977 93.938 57.8447 93.938 58.0262C93.938 58.139 93.964 58.238 94.016 58.3232C94.068 58.4057 94.1501 58.4869 94.2622 58.5667C94.3771 58.6436 94.6466 58.7839 95.0707 58.9875C95.6315 59.2569 96.0159 59.5277 96.2239 59.8001C96.4318 60.0695 96.5358 60.4009 96.5358 60.7942ZM99.9378 62.469H98.6656V57.5025H97.0364V56.4382H101.567V57.5025H99.9378V62.469ZM106.163 62.469L105.728 61.0335H103.541L103.106 62.469H101.735L103.853 56.4135H105.408L107.534 62.469H106.163ZM105.425 59.961C105.022 58.6601 104.795 57.9245 104.743 57.7541C104.694 57.5835 104.659 57.4487 104.637 57.3497C104.546 57.7018 104.288 58.5722 103.861 59.961H105.425ZM113.177 56.4382V60.3405C113.177 60.786 113.077 61.1764 112.877 61.512C112.68 61.8474 112.394 62.1045 112.019 62.2832C111.645 62.462 111.201 62.5515 110.69 62.5515C109.918 62.5515 109.319 62.3535 108.892 61.9575C108.466 61.5587 108.252 61.0142 108.252 60.324V56.4382H109.52V60.1301C109.52 60.5948 109.613 60.9358 109.799 61.1531C109.985 61.3703 110.293 61.479 110.723 61.479C111.139 61.479 111.439 61.3703 111.626 61.1531C111.814 60.933 111.909 60.5893 111.909 60.1217V56.4382H113.177ZM115.918 59.1152H116.328C116.731 59.1152 117.027 59.0479 117.219 58.9132C117.411 58.7784 117.506 58.5667 117.506 58.278C117.506 57.9919 117.408 57.7884 117.211 57.6675C117.017 57.5464 116.714 57.486 116.304 57.486H115.918V59.1152ZM115.918 60.1547V62.469H114.646V56.4382H116.394C117.209 56.4382 117.813 56.588 118.204 56.8877C118.595 57.1847 118.791 57.6371 118.791 58.245C118.791 58.5997 118.694 58.9159 118.499 59.1937C118.305 59.4686 118.03 59.6846 117.674 59.8412C118.577 61.197 119.166 62.073 119.439 62.469H118.027L116.595 60.1547H115.918ZM123.867 62.469L123.432 61.0335H121.245L120.81 62.469H119.439L121.557 56.4135H123.112L125.238 62.469H123.867ZM123.129 59.961C122.726 58.6601 122.499 57.9245 122.447 57.7541C122.398 57.5835 122.362 57.4487 122.341 57.3497C122.25 57.7018 121.992 58.5722 121.565 59.961H123.129ZM131.32 62.469H129.703L127.093 57.9067H127.056C127.108 58.7124 127.134 59.2871 127.134 59.631V62.469H125.997V56.4382H127.602L130.208 60.9551H130.236C130.195 60.1712 130.175 59.6171 130.175 59.2927V56.4382H131.32V62.469ZM135.149 62.469H133.876V57.5025H132.247V56.4382H136.777V57.5025H135.149V62.469ZM141.242 60.7942C141.242 61.3387 141.047 61.7677 140.656 62.0812C140.268 62.3947 139.725 62.5515 139.031 62.5515C138.391 62.5515 137.824 62.4304 137.331 62.1885V61.0005C137.737 61.182 138.079 61.3097 138.358 61.3841C138.639 61.4582 138.897 61.4955 139.129 61.4955C139.409 61.4955 139.622 61.4417 139.77 61.3346C139.92 61.2272 139.995 61.0678 139.995 60.8561C139.995 60.7378 139.962 60.6332 139.896 60.5426C139.83 60.449 139.733 60.3596 139.606 60.2745C139.48 60.1892 139.221 60.053 138.83 59.8661C138.463 59.6927 138.188 59.5264 138.005 59.367C137.821 59.2074 137.675 59.0218 137.565 58.8101C137.456 58.5983 137.401 58.3508 137.401 58.0676C137.401 57.534 137.581 57.1147 137.939 56.8095C138.301 56.5042 138.798 56.3516 139.433 56.3516C139.745 56.3516 140.042 56.3887 140.323 56.463C140.608 56.5372 140.905 56.6417 141.215 56.7765L140.804 57.7706C140.483 57.6386 140.218 57.5464 140.008 57.4942C139.799 57.4419 139.594 57.4157 139.392 57.4157C139.152 57.4157 138.966 57.4721 138.838 57.585C138.709 57.6977 138.645 57.8447 138.645 58.0262C138.645 58.139 138.671 58.238 138.723 58.3232C138.775 58.4057 138.857 58.4869 138.969 58.5667C139.085 58.6436 139.354 58.7839 139.778 58.9875C140.339 59.2569 140.723 59.5277 140.931 59.8001C141.138 60.0695 141.242 60.4009 141.242 60.7942Z" fill="white"/>
<path d="M9.68602 43.3434C7.95309 44.0875 6.93159 44.2248 6.44454 44.2009L6.44098 44.2007C6.42355 44.0708 6.41196 43.8723 6.43189 43.5869C6.48082 42.886 6.7062 41.941 7.15958 40.8395C8.07178 38.6231 9.69738 36.2753 11.5896 34.6662C12.8538 33.5912 14.0239 33.0108 15.0492 32.8205C15.4365 34.0359 15.7924 35.7523 15.7907 38.0535C15.7885 41.0649 15.1728 45.1971 13.0719 50.6236H19.9069C21.6027 45.6188 22.21 41.4613 22.2125 38.0582C22.2163 33.0614 20.915 29.8897 20.1351 28.2722L19.4587 26.8695L17.945 26.5299C13.8672 25.6151 10.1435 27.4409 7.44192 29.7381C4.70025 32.0695 2.49423 35.2891 1.22547 38.3719C0.588368 39.9198 0.135933 41.5574 0.0257833 43.135C-0.0814364 44.6705 0.116479 46.4907 1.17876 48.0376C2.2714 49.6287 3.94304 50.4516 5.785 50.6236H7.35082C8.86982 50.4946 10.5006 50.0129 12.2088 49.2794L9.68602 43.3434Z" fill="#2D2821"/>
<path d="M31.3546 44.2827C31.5184 40.4745 32.0501 35.7038 33.1884 31.3133C33.9242 28.475 34.8808 25.9255 36.0678 23.9287C37.2603 21.9226 38.5561 20.6873 39.8888 20.1012L37.3148 14.1875C34.3387 15.4963 32.155 17.9263 30.555 20.6177C28.9493 23.3187 27.8001 26.4993 26.974 29.6856C25.3229 36.0545 24.8326 42.9651 24.8778 47.4222L24.9103 50.6167H34.4318C35.7664 50.6167 37.4987 50.1811 38.8123 49.3128C40.2177 48.3838 41.2272 46.9956 41.7039 45.2035L35.4998 43.5364C35.4215 43.8307 35.3405 43.8829 35.2917 43.9143C35.2889 43.9161 35.2863 43.9179 35.2838 43.9196C35.1443 44.0117 34.7971 44.165 34.0558 44.2504C33.3243 44.3346 32.45 44.3288 31.3903 44.2843L31.3546 44.2827Z" fill="#2D2821"/>
<path fill-rule="evenodd" clip-rule="evenodd" d="M59.0284 0L61.2894 2.25368C69.3762 10.3145 72.2013 20.766 73.2015 32.4197C73.647 37.6104 73.7366 44.9651 73.7366 50.6675H67.3147C67.3147 45.3745 67.2354 38.8884 66.8903 34.0812C66.36 33.6059 65.7376 33.2152 65.1057 32.9219C64.2989 32.5471 63.7429 32.4496 63.6058 32.4255C63.5757 32.4203 63.5657 32.4185 63.5777 32.4181L63.53 32.4196H54.9889C54.2761 32.4196 53.2438 32.7368 52.2109 33.3201C51.791 33.5573 51.4361 33.8026 51.1713 34.0156C50.8222 38.8293 50.7421 45.3503 50.7421 50.6675H44.3203C44.3203 44.9651 44.4097 37.6104 44.8553 32.4197C45.8555 20.766 48.6806 10.3145 56.7674 2.25368L59.0284 0ZM52.0763 26.407C52.999 26.1372 53.9851 25.9645 54.9889 25.9645H63.4459C64.2118 25.9504 65.0879 26.1022 65.9735 26.3663C64.8206 19.6858 62.7302 14.0466 59.0284 9.37059C55.3189 14.0562 53.2276 19.7087 52.0763 26.407Z" fill="#2D2821"/>
<path fill-rule="evenodd" clip-rule="evenodd" d="M83.2875 25.992C82.0577 22.9622 80.6686 20.99 78.7559 19.754L82.2285 14.3242C86.8856 17.3334 89.0603 22.3712 90.6978 27.7564C92.7905 34.639 93.3854 42.5329 93.3358 47.421L93.3033 50.6156C91.6445 50.643 85.9583 50.6156 84.1469 50.6156C82.3354 50.6156 80.6914 49.5208 79.5065 48.4536C78.2496 47.3216 77.5108 45.796 77.3032 44.0158C77.2336 43.4193 77.1498 42.7735 77.0636 42.109C76.9033 40.8728 76.7345 39.5717 76.6329 38.4018C76.4726 36.5549 76.4179 34.5118 76.8582 32.6082C77.3221 30.6038 78.3627 28.6547 80.3911 27.2904C81.2553 26.709 82.2254 26.2842 83.2875 25.992ZM85.2353 32.1545C86.2185 36.2588 86.6962 40.6247 86.8546 44.181C86.0413 44.1685 85.3254 44.1194 84.6731 43.9793C84.0539 43.8464 83.8375 43.6871 83.7922 43.6463C83.7792 43.6346 83.7738 43.6285 83.7633 43.6074C83.7504 43.5812 83.7068 43.4826 83.6814 43.2642C83.589 42.4729 83.4938 41.7435 83.4031 41.0487V41.0483C83.2567 39.9273 83.1222 38.8962 83.0305 37.8407C82.8862 36.1787 82.9077 34.9585 83.1133 34.0704C83.2954 33.2834 83.5794 32.9127 83.9625 32.6551C84.2104 32.4882 84.6086 32.2985 85.2353 32.1545Z" fill="#2D2821"/>
<path fill-rule="evenodd" clip-rule="evenodd" d="M101.798 27.9101C101.957 27.8377 102.122 27.7665 102.29 27.6965C101.854 27.0091 101.423 26.4045 100.912 25.8056C99.7817 24.4808 98.1618 23.0905 95.0312 21.2222L98.31 15.6719C101.808 17.7597 104.053 19.571 105.787 21.6038C107.251 23.3204 108.282 25.1328 109.344 27.0017L109.348 27.0079C109.501 27.2769 109.654 27.547 109.81 27.8181L109.903 27.9813L109.978 28.1543C112.787 34.712 112.719 42.8557 112.673 47.4234L112.641 50.618C111.54 50.6293 103.904 50.618 102.688 50.618C101.471 50.618 100.116 49.7718 98.8979 48.7231C97.5962 47.6023 96.8489 46.0641 96.6406 44.2785C96.2709 41.1081 96.1313 38.5516 96.2833 36.4778C96.436 34.3933 96.8988 32.5495 97.9383 31.0092C99.0018 29.4335 100.427 28.5341 101.798 27.9101ZM105.046 33.5387C105.972 36.9986 106.21 40.8498 106.254 44.2268C105.281 44.2352 104.511 44.1998 103.904 44.0909C103.344 43.9904 103.134 43.8626 103.086 43.8288C103.074 43.8007 103.04 43.7111 103.019 43.5268C102.666 40.5024 102.58 38.4194 102.688 36.9517C102.794 35.4948 103.076 34.8952 103.253 34.633C103.406 34.4062 103.669 34.1441 104.447 33.7905C104.639 33.7031 104.837 33.6204 105.046 33.5387Z" fill="#2D2821"/>
<path fill-rule="evenodd" clip-rule="evenodd" d="M118.183 23.0747C117.53 21.9409 116.765 20.7677 115.867 19.5195L110.664 23.303C113.829 27.7001 114.823 30.5892 115.286 34.7125C115.302 37.6302 115.702 41.7733 116.208 45.5449C116.444 47.301 116.712 49.0533 116.992 50.6228H123.524C123.212 49.0137 122.875 46.9358 122.573 44.6826C122.068 40.9162 121.707 37.0176 121.707 34.5295C121.707 30.6795 121.841 27.9762 124.371 25.8798L120.286 20.8991C119.454 21.5882 118.761 22.319 118.183 23.0747Z" fill="#2D2821"/>
<path d="M140.326 41.1735C140.651 42.1256 141.107 43.8402 141.345 45.7307C141.581 47.6072 141.563 49.3461 141.217 50.6238H147.756C148.033 48.6534 147.932 46.639 147.715 44.9202C147.414 42.5301 146.842 40.3544 146.377 39.0113L146.362 38.9691L146.347 38.9274C145.149 35.7519 142.934 32.3931 140.155 29.9495C137.423 27.5467 133.604 25.5887 129.408 26.5301L127.894 26.8697L127.218 28.2725C126.438 29.8899 125.137 33.0616 125.141 38.0586C125.143 41.4615 125.75 45.619 127.446 50.6238H134.281C132.181 45.1974 131.565 41.0651 131.562 38.0537C131.561 35.7528 131.917 34.0365 132.304 32.8211C133.376 33.0201 134.604 33.6442 135.926 34.8069C137.857 36.5054 139.477 38.9447 140.326 41.1735Z" fill="#2D2821"/>
<path fill-rule="evenodd" clip-rule="evenodd" d="M122.706 12.2617C122.888 12.6486 123.201 13.093 123.833 13.7743L119.138 18.1787C118.321 17.2982 117.494 16.2851 116.899 15.0191C116.283 13.7081 115.996 12.3038 115.996 10.7188H122.418C122.418 11.4763 122.545 11.92 122.706 12.2617Z" fill="#FE7349"/>
</g>
<defs>
<clipPath id="clip0_1_6420">
<rect width="148" height="66" fill="white"/>
</clipPath>
</defs>
</svg>
